<svg width="191" height="184" viewBox="0 0 191 184" fill="none" xmlns="http://www.w3.org/2000/svg">
<g clip-path="url(#clip0_402_4)">
<path d="M90.7671 144.718C91.3082 144.75 92.0516 144.803 92.8364 144.858H93.0981L93.1098 144.878C93.6708 144.917 94.2445 144.957 94.7768 144.992C95.3213 145.028 95.8237 145.059 96.2261 145.077C96.8253 145.104 97.6921 145.105 98.5845 145.096C98.9813 145.091 99.384 145.087 99.77 145.078C100.693 145.058 102.882 144.809 103.064 145.5L103.103 145.749L102.937 145.916C102.94 145.912 102.938 145.913 102.933 145.923C102.949 145.905 102.937 145.914 102.901 145.991C102.895 146.003 102.889 146.016 102.882 146.031C102.86 146.083 102.834 146.147 102.807 146.221C102.78 146.295 102.751 146.38 102.719 146.477C102.593 146.863 102.443 147.398 102.274 148.063C102.02 149.061 101.726 150.334 101.404 151.802C101.297 152.291 101.186 152.802 101.073 153.332C100.168 157.57 99.0975 162.988 98.0972 168.054C97.3326 171.926 96.609 175.592 96.0317 178.361C95.8059 179.444 95.5989 180.393 95.4233 181.164C95.3746 181.378 95.3308 181.579 95.2866 181.765C95.1851 182.191 95.0944 182.547 95.0171 182.816C94.9785 182.951 94.9424 183.07 94.9077 183.167C94.8814 183.241 94.8449 183.326 94.8032 183.401C94.7956 183.415 94.7899 183.43 94.7817 183.443L94.5483 183.817L94.1479 183.632C94.118 183.618 94.0891 183.602 94.062 183.585C94.0075 183.551 93.9581 183.511 93.9145 183.468C93.8055 183.361 93.728 183.235 93.6733 183.13C93.5763 182.944 93.4962 182.716 93.4272 182.473C93.3674 182.262 93.3134 182.023 93.2622 181.766C93.1946 181.425 93.1326 181.051 93.0776 180.658C92.8839 179.274 92.7507 177.588 92.6421 176.221C92.5496 175.055 92.4778 174.164 92.4077 173.821C92.3644 173.609 92.2756 172.88 92.1587 171.834C92.0398 170.77 91.8875 169.34 91.7153 167.695L90.5571 156.404L90.5561 156.402V156.4L89.7602 148.617C89.6543 147.597 89.5655 146.763 89.5014 146.181C89.4694 145.89 89.4442 145.663 89.4253 145.51C89.4158 145.432 89.408 145.376 89.4028 145.341C89.4016 145.333 89.4007 145.326 89.3999 145.321C89.4005 145.324 89.4017 145.329 89.4038 145.337C89.3967 145.312 89.3896 145.286 89.3862 145.257C89.3803 145.206 89.3843 145.158 89.3921 145.113C89.4094 145.014 89.453 144.931 89.5024 144.873C89.5643 144.8 89.6322 144.762 89.6645 144.746C89.7009 144.728 89.7339 144.718 89.7534 144.712C89.8172 144.694 89.8782 144.69 89.8989 144.688C89.9582 144.685 90.0341 144.685 90.1098 144.687C90.2682 144.69 90.4963 144.702 90.7671 144.718Z" fill="#E16508"/>
<path d="M126.307 138.838C126.374 138.84 126.446 138.853 126.515 138.879C126.561 138.896 126.607 138.919 126.65 138.948C126.671 138.963 126.692 138.979 126.711 138.997C126.751 139.033 126.787 139.076 126.817 139.127L126.945 139.343L126.848 139.573C126.848 139.573 126.843 139.585 126.838 139.605C126.833 139.629 126.826 139.662 126.82 139.704C126.806 139.789 126.795 139.902 126.786 140.042C126.768 140.324 126.762 140.695 126.767 141.145C126.773 141.594 126.79 142.114 126.816 142.691C126.842 143.269 126.877 143.903 126.919 144.58C127.089 147.289 127.37 150.659 127.63 153.764C127.635 153.825 127.641 153.887 127.646 153.948L127.893 156.925C127.974 157.917 128.045 158.833 128.102 159.632C128.159 160.43 128.2 161.115 128.22 161.642C128.235 162.018 128.241 162.348 128.226 162.583C128.221 162.662 128.214 162.73 128.205 162.785L128.127 163.221L127.686 163.197C127.573 163.191 127.468 163.163 127.374 163.123C127.281 163.083 127.197 163.03 127.125 162.978C126.979 162.869 126.842 162.728 126.717 162.576C126.468 162.273 126.215 161.866 125.97 161.424C125.479 160.536 124.973 159.411 124.541 158.449C124.117 157.511 123.783 156.771 123.577 156.459C123.457 156.277 123.234 155.863 122.945 155.299C122.655 154.734 122.299 154.018 121.913 153.231C121.521 152.434 121.091 151.549 120.657 150.651C120.222 149.754 119.783 148.842 119.372 147.988C118.812 146.826 118.305 145.772 117.931 145.006C117.744 144.623 117.592 144.313 117.484 144.1C117.43 143.992 117.388 143.911 117.36 143.859C117.346 143.833 117.337 143.819 117.334 143.814C117.325 143.801 117.314 143.788 117.305 143.773C117.23 143.642 117.227 143.505 117.251 143.403C117.289 143.248 117.39 143.156 117.404 143.144C117.459 143.091 117.522 143.054 117.551 143.037C117.626 142.994 117.729 142.942 117.841 142.889C118.071 142.78 118.405 142.633 118.781 142.466L119.966 141.935C120.38 141.746 120.8 141.548 121.184 141.354L121.185 141.354C122.8 140.541 125.564 139.124 125.808 138.982C125.959 138.895 126.129 138.833 126.307 138.838Z" fill="#E16508"/>
<path d="M54.7466 132.119C54.8216 132.122 54.8798 132.142 54.8989 132.148C54.9238 132.157 54.9441 132.167 54.9556 132.173C54.9939 132.192 55.0275 132.214 55.0395 132.222C55.0733 132.244 55.1155 132.276 55.1587 132.309C55.2488 132.377 55.3778 132.478 55.5298 132.599C55.8353 132.842 56.2531 133.18 56.6938 133.536C57.3679 134.081 58.0974 134.67 58.5825 135.049L59.0083 135.373C59.4837 135.73 60.0894 136.169 60.6421 136.564C61.0091 136.827 61.351 137.069 61.6118 137.251C61.7419 137.342 61.8519 137.418 61.9341 137.475C61.975 137.503 62.0093 137.526 62.0347 137.543C62.047 137.551 62.0575 137.558 62.0649 137.562L62.0747 137.568L62.0757 137.569C62.1255 137.6 62.1757 137.634 62.2222 137.672C62.2687 137.71 62.3121 137.754 62.3491 137.802C62.3771 137.838 62.4095 137.888 62.4341 137.95L62.4556 138.017C62.4782 138.105 62.4939 138.265 62.396 138.424C62.3947 138.426 62.3924 138.428 62.3911 138.43L62.2309 138.689L62.0298 138.669C61.9748 138.702 61.8958 138.758 61.7915 138.838C61.784 138.844 61.7758 138.849 61.7681 138.855C61.6458 138.95 61.5006 139.07 61.3345 139.213C61.168 139.356 60.9799 139.523 60.772 139.712C59.9427 140.466 58.8221 141.549 57.5171 142.84C54.9076 145.421 51.5782 148.82 48.4057 152.06C45.7867 154.734 43.2731 157.301 41.3638 159.204C40.4098 160.155 39.602 160.944 39.0063 161.499C38.7097 161.775 38.4594 162 38.2671 162.158C38.1719 162.236 38.0817 162.306 38.0034 162.358C37.9648 162.384 37.92 162.412 37.8735 162.436C37.8461 162.449 37.7911 162.475 37.7212 162.491C37.6979 162.497 37.6724 162.501 37.646 162.504L37.3647 162.53L37.1968 162.304C37.0864 162.155 37.0691 161.991 37.0679 161.893C37.0678 161.886 37.0688 161.88 37.0688 161.873C37.0697 161.773 37.0855 161.673 37.1059 161.584C37.1499 161.393 37.2311 161.171 37.3296 160.938C37.5286 160.468 37.8332 159.876 38.1772 159.25C38.8673 157.995 39.7467 156.551 40.3423 155.573C40.5255 155.272 40.6758 155.024 40.7866 154.839C40.8975 154.654 40.9691 154.532 40.9927 154.483C41.0387 154.389 41.2932 153.958 41.6694 153.328C42.0569 152.68 42.5963 151.783 43.2339 150.726C44.5093 148.609 46.1827 145.841 47.8403 143.1C49.4728 140.399 51.0904 137.723 52.2983 135.719C52.9022 134.717 53.403 133.882 53.7524 133.297C53.9271 133.004 54.0638 132.775 54.1557 132.618C54.2018 132.54 54.2357 132.481 54.2573 132.442C54.2622 132.434 54.2661 132.426 54.269 132.421C54.2799 132.396 54.2933 132.37 54.31 132.345C54.3823 132.235 54.4762 132.178 54.5591 132.148C54.6 132.134 54.6391 132.127 54.6714 132.123C54.7037 132.119 54.7306 132.119 54.7466 132.119Z" fill="#E16508"/>
<path d="M147.828 125.371C147.879 125.375 147.928 125.384 147.974 125.397C148.113 125.438 148.228 125.519 148.306 125.615L148.31 125.62L148.424 125.762L148.417 125.948C148.415 126.02 148.448 126.252 148.556 126.688C148.658 127.1 148.812 127.641 149.009 128.288C149.108 128.611 149.218 128.961 149.336 129.333C149.693 130.45 150.135 131.774 150.633 133.233C151.229 134.978 151.906 136.911 152.611 138.908C153.366 141.047 154.155 143.259 154.916 145.39C155.016 145.671 155.116 145.952 155.215 146.23L155.284 146.299V146.421C155.312 146.499 155.34 146.578 155.368 146.656C156.381 149.492 157.32 152.122 158.03 154.16C158.398 155.217 158.706 156.117 158.93 156.805C159.149 157.474 159.303 157.983 159.345 158.229L159.457 158.874L158.806 158.812C158.688 158.801 158.573 158.766 158.468 158.718C158.363 158.67 158.266 158.61 158.181 158.551C157.999 158.424 157.807 158.255 157.612 158.062C157.221 157.676 156.774 157.151 156.307 156.561C155.84 155.969 155.342 155.298 154.846 154.613C154.351 153.929 153.857 153.229 153.399 152.58C152.521 151.336 151.789 150.301 151.389 149.847C151.21 149.643 150.899 149.212 150.5 148.631C150.368 148.437 150.225 148.227 150.075 148.003C149.463 147.092 148.694 145.916 147.852 144.613C147.01 143.31 146.092 141.877 145.182 140.449C144.272 139.022 143.37 137.599 142.557 136.318C141.665 134.913 140.881 133.678 140.313 132.791C140.029 132.348 139.8 131.992 139.639 131.747C139.559 131.624 139.496 131.531 139.454 131.47L139.416 131.415C139.419 131.419 139.429 131.43 139.442 131.442C139.444 131.444 139.451 131.45 139.461 131.459C139.376 131.388 139.298 131.279 139.28 131.127C139.26 130.958 139.329 130.834 139.354 130.792C139.368 130.769 139.383 130.748 139.398 130.729C139.443 130.674 139.49 130.635 139.511 130.617C139.587 130.554 139.692 130.485 139.798 130.419C140.019 130.282 140.341 130.098 140.701 129.893C141.048 129.694 141.438 129.471 141.83 129.238C142.221 129.006 142.615 128.763 142.97 128.523C143.715 128.021 144.732 127.325 145.592 126.731C146.466 126.128 147.145 125.653 147.242 125.574L147.373 125.482C147.51 125.402 147.665 125.359 147.828 125.371Z" fill="#E16508"/>
<path fill-rule="evenodd" clip-rule="evenodd" d="M70.2925 140.093C70.3383 140.098 70.3791 140.109 70.3921 140.112C70.4303 140.123 70.4776 140.138 70.5239 140.153C70.6212 140.186 70.7597 140.235 70.9233 140.295L72.0854 140.727C72.1165 140.738 72.1488 140.75 72.1802 140.762C72.9085 141.034 73.6964 141.329 74.2153 141.512L74.6675 141.665C74.8615 141.729 75.0763 141.796 75.2993 141.866C75.6555 141.978 76.0351 142.096 76.3931 142.203C76.7792 142.319 77.1383 142.424 77.4116 142.503C77.5476 142.542 77.6631 142.575 77.7485 142.599C77.7906 142.61 77.8263 142.62 77.852 142.627C77.8758 142.633 77.8878 142.636 77.8901 142.637C77.9451 142.648 78.0033 142.664 78.06 142.686C78.1166 142.707 78.1732 142.736 78.2251 142.773C78.2999 142.827 78.5176 143.017 78.4546 143.326C78.4537 143.33 78.4517 143.335 78.4507 143.339L78.3931 143.622L78.146 143.692C78.1432 143.694 78.1398 143.697 78.1362 143.7C78.1039 143.725 78.0556 143.767 77.9907 143.83C77.8612 143.956 77.6913 144.139 77.4848 144.378C77.3819 144.497 77.2712 144.628 77.1538 144.77C76.8016 145.194 76.3873 145.716 75.9302 146.305C74.7117 147.875 73.2068 149.903 71.7915 151.81L71.7905 151.812C70.6956 153.286 69.6529 154.69 68.8442 155.746C68.4405 156.273 68.0912 156.719 67.8208 157.045C67.6861 157.207 67.5658 157.346 67.4663 157.452C67.4215 157.5 67.376 157.544 67.3335 157.583C67.3292 157.587 67.3251 157.592 67.3208 157.596C67.301 157.614 67.2749 157.636 67.2446 157.659C67.214 157.683 67.1786 157.707 67.1401 157.728C67.1369 157.729 67.1326 157.73 67.1294 157.731L66.8618 157.874L66.6089 157.688C66.4361 157.56 66.3606 157.38 66.3257 157.247L66.3032 157.144C66.2858 157.039 66.2819 156.933 66.2837 156.833C66.2886 156.566 66.3403 156.25 66.4087 155.934C66.5466 155.295 66.778 154.543 66.9604 153.948C66.9796 153.886 66.9971 153.824 67.0151 153.766L67.1567 153.294C67.2115 153.102 67.2372 152.992 67.2427 152.948C67.2644 152.773 67.4368 151.903 67.6714 150.742C67.9097 149.563 68.2211 148.044 68.5288 146.54C68.8395 145.021 69.1468 143.517 69.3745 142.389C69.4883 141.825 69.5821 141.356 69.646 141.027C69.678 140.862 69.7019 140.734 69.7173 140.647L69.7309 140.565L69.7319 140.562C69.7333 140.533 69.7367 140.503 69.7446 140.471C69.7517 140.442 69.7614 140.415 69.772 140.391C69.8461 140.218 69.9947 140.144 70.061 140.12C70.0987 140.107 70.1342 140.099 70.1626 140.095C70.1906 140.091 70.2127 140.09 70.2241 140.09C70.2531 140.089 70.2786 140.091 70.2925 140.093ZM69.7348 140.653C69.7354 140.657 69.7389 140.677 69.7456 140.705C69.74 140.682 69.735 140.656 69.7329 140.629C69.7334 140.636 69.7338 140.645 69.7348 140.653Z" fill="#E16508"/>
<path fill-rule="evenodd" clip-rule="evenodd" d="M95.3384 -0.174805C95.7618 0.626248 96.0064 1.81069 96.1645 2.98828C96.3249 4.18262 96.4048 5.4423 96.4673 6.42773C96.4933 6.83857 96.5161 7.19903 96.5405 7.49219C96.5656 7.79417 96.59 7.99374 96.6138 8.09766C96.6754 8.36718 96.8216 9.32884 97.0034 10.582C97.1876 11.8513 97.4131 13.4559 97.6362 15.04L97.6372 15.042L98.2573 19.4092C98.3442 20.0068 98.4184 20.5077 98.4751 20.8672C98.5383 21.268 98.584 21.4243 98.6357 21.7845C98.6357 21.7845 98.6311 22.4068 97.9297 22.4531C97.9297 22.4531 99.1502 22.6916 101.383 23.2051C101.454 23.2213 101.525 23.2394 101.595 23.2559C103.179 23.6265 104.72 24.0555 106.217 24.5449L106.367 24.5947C106.41 24.6089 106.453 24.6244 106.496 24.6387C107.391 24.9369 108.272 25.2551 109.137 25.5947C109.241 25.6356 109.345 25.6783 109.449 25.7197C109.948 25.9195 110.444 26.1245 110.933 26.3379C111.145 26.4303 111.356 26.5262 111.566 26.6211C111.657 26.6623 111.749 26.7024 111.84 26.7441C111.99 26.8128 112.139 26.8841 112.288 26.9541C112.446 27.0289 112.606 27.1025 112.764 27.1787C112.897 27.2429 113.029 27.3097 113.162 27.375C113.308 27.4475 113.456 27.5191 113.602 27.5928C113.765 27.6754 113.928 27.7606 114.09 27.8447C114.215 27.9095 114.341 27.9733 114.465 28.0391C114.635 28.1287 114.803 28.2211 114.971 28.3125C115.092 28.3784 115.215 28.443 115.335 28.5098C115.528 28.6165 115.72 28.726 115.911 28.835C115.997 28.8845 116.085 28.9334 116.171 28.9834C116.283 29.0477 116.393 29.1146 116.503 29.1797C116.679 29.283 116.856 29.385 117.03 29.4902C117.503 29.7764 117.971 30.0718 118.434 30.3721C118.471 30.3958 118.508 30.4195 118.544 30.4434C123.75 33.837 131.091 41.1644 135.044 46.8359C135.475 47.3384 135.897 47.8516 136.311 48.374L136.339 48.3311C136.342 48.3278 136.345 48.3244 136.347 48.3213C136.368 48.2939 136.391 48.2689 136.415 48.2471L136.54 48.1309L136.709 48.1143C137.14 48.0738 138.189 47.9566 139.546 47.7959C140.904 47.6351 142.572 47.4305 144.239 47.2148C145.096 47.104 145.952 46.9897 146.765 46.8779C147.532 46.7722 148.262 46.6681 148.917 46.5693C149.601 46.4663 150.194 46.3712 150.664 46.2871C151.133 46.2027 151.48 46.1295 151.67 46.0723L152.374 45.8613L152.312 46.5908V46.5928C152.302 46.7157 152.269 46.8335 152.224 46.9434C152.179 47.0534 152.122 47.1563 152.061 47.249C151.998 47.3444 151.926 47.4397 151.846 47.5332C151.767 47.6269 151.679 47.7191 151.588 47.8096C151.305 48.0921 150.952 48.3816 150.579 48.6611C150.473 48.7398 150.367 48.8188 150.259 48.8955C149.893 49.157 149.509 49.4111 149.146 49.6426C148.779 49.8765 148.431 50.0876 148.141 50.2607L147.65 50.5508L147.572 50.5967C147.124 50.8599 145.632 51.9587 144.21 53.0381C143.507 53.5719 142.832 54.0926 142.331 54.4873C142.079 54.6848 141.873 54.8493 141.729 54.9678C141.657 55.0273 141.603 55.073 141.569 55.1035C141.561 55.1106 141.554 55.1166 141.549 55.1211L141.542 55.1279L141.544 55.125C141.546 55.123 141.55 55.1192 141.554 55.1143C141.557 55.1106 141.562 55.1037 141.568 55.0957C141.523 55.1564 141.461 55.2179 141.374 55.2588C141.346 55.2724 141.314 55.2835 141.28 55.292C141.275 55.293 141.27 55.292 141.265 55.293C141.149 55.3184 141.051 55.3001 140.987 55.2783C143.928 60.3956 146.2 66.1422 147.651 72.3223C148.172 73.7901 148.676 75.278 149.163 76.7832C149.222 76.9675 149.282 77.1521 149.341 77.3369C149.511 77.868 149.68 78.4011 149.846 78.9365C149.854 78.9603 149.861 78.9841 149.869 79.0078C150.73 81.795 151.088 84.773 150.984 87.6885C150.914 89.6467 150.796 91.5948 150.627 93.5254C150.585 94.0083 150.54 94.4901 150.491 94.9707C150.393 95.9315 150.283 96.8877 150.158 97.8379C150.095 98.3129 150.029 98.7867 149.959 99.2588C149.82 100.203 149.667 101.141 149.499 102.072C149.414 102.538 149.327 103.001 149.235 103.463C149.051 104.387 148.853 105.303 148.638 106.211C148.531 106.665 148.42 107.117 148.304 107.566C148.074 108.465 147.827 109.355 147.563 110.235C146.046 115.315 140.252 127.221 137.466 129.264L136.792 129.994C135.039 131.897 133.095 133.646 130.947 135.217C130.589 135.478 130.225 135.736 129.856 135.987C128.008 137.247 126.016 138.38 123.872 139.376C123.616 139.495 123.357 139.611 123.097 139.726C118.067 142.662 113.175 142.794 106.48 143.403C101.668 143.841 98.5068 144.368 94.3638 144.165C94.0282 144.149 93.6903 144.13 93.3511 144.11C92.3328 144.05 91.2973 143.973 90.2456 143.879C84.891 143.544 79.8271 142.585 75.0874 141.096C74.6568 140.96 74.2284 140.821 73.8032 140.677C72.1012 140.101 70.4418 139.456 68.8276 138.746C68.4242 138.569 68.0233 138.386 67.6255 138.201C64.84 136.904 62.1919 135.413 59.6909 133.753C58.6192 133.041 57.5744 132.298 56.5571 131.526C55.8787 131.012 55.2118 130.484 54.5581 129.944C53.5779 129.135 52.6253 128.296 51.7016 127.433C44.1477 120.37 39.6825 112.389 37.7768 108.424C37.674 108.21 37.5726 107.995 37.4722 107.78C37.0706 106.921 36.6883 106.053 36.3257 105.179C35.7814 103.867 35.2816 102.538 34.8266 101.197C34.7509 100.974 34.6762 100.75 34.603 100.526L34.5132 100.253L34.7046 100.038C34.9273 99.7882 35.1461 99.5369 35.3628 99.291L32.2007 87.1953C32.8049 76.6312 31.2255 70.6811 34.4673 59.6504C34.5952 59.2151 34.7275 58.782 34.8638 58.3516C35.8177 55.3376 36.9759 52.4433 38.3393 49.6953C40.8714 44.5914 44.1128 39.9903 48.0718 36.0586C48.4677 35.6654 48.8715 35.2789 49.2817 34.8994C49.3139 34.8697 49.3462 34.8392 49.3784 34.8096C49.7763 34.4435 50.182 34.0844 50.5932 33.7314C50.6486 33.6839 50.7046 33.6362 50.7602 33.5889C50.9531 33.4249 51.1475 33.2616 51.3432 33.1006C51.3506 33.0945 51.3583 33.0881 51.3657 33.082C51.5781 32.9076 51.7925 32.7345 52.0083 32.5635C52.051 32.5296 52.0943 32.4956 52.1372 32.4619C52.3218 32.3167 52.5077 32.172 52.6948 32.0293C52.7203 32.0098 52.7464 31.9901 52.772 31.9707C53.2247 31.6268 53.6856 31.2907 54.1528 30.9619C54.1945 30.9326 54.237 30.9032 54.2788 30.874C54.7286 30.5598 55.1848 30.2511 55.6479 29.9512C55.7028 29.9156 55.7589 29.881 55.8139 29.8457C56.0026 29.7247 56.1925 29.604 56.3833 29.4854C56.4241 29.46 56.4654 29.4344 56.5063 29.4092C56.7286 29.2719 56.9529 29.136 57.1782 29.002C57.2035 28.9869 57.229 28.9711 57.2544 28.9561C57.4824 28.821 57.7118 28.6864 57.9429 28.5547C58.0094 28.5168 58.0773 28.48 58.144 28.4424C58.322 28.3421 58.5014 28.2428 58.6811 28.1445C58.7557 28.1038 58.8309 28.0629 58.9057 28.0225C59.1331 27.8997 59.3621 27.7777 59.5923 27.6582C59.3714 27.7631 59.1691 27.8577 58.9966 27.9414C58.8288 28.0228 58.6886 28.0915 58.5845 28.1445C58.5326 28.171 58.4903 28.1932 58.4595 28.21C58.4336 28.224 58.4213 28.2317 58.4184 28.2334L58.4175 28.2324C58.2766 28.325 58.1323 28.3614 57.9975 28.3623C57.9642 28.3625 57.9309 28.3613 57.8989 28.3574C57.8023 28.3454 57.7118 28.3162 57.6343 28.2773C57.4527 28.186 57.3259 28.0426 57.2573 27.9385L57.1958 27.8447L57.1811 27.7412C57.1807 27.7386 57.1796 27.736 57.1792 27.7334C57.074 26.9852 57.0904 25.891 57.1597 24.6387C57.2295 23.3759 57.356 21.91 57.4868 20.4023C57.6609 18.3959 57.842 16.3128 57.9087 14.4912C57.9761 12.6485 57.9224 11.1485 57.6636 10.2725L57.2104 8.74023L58.4565 9.74121C59.1323 10.2845 59.74 11.1233 60.2612 11.9775C60.5243 12.4088 60.7725 12.8559 61.0014 13.2881C61.2303 13.7201 61.4403 14.1376 61.6274 14.5098C61.7986 14.8501 61.9492 15.1496 62.0806 15.3945C62.2157 15.6465 62.3158 15.8113 62.3833 15.8984C62.72 16.3327 64.0252 18.3951 65.2124 20.2695L65.2163 20.2744L65.2192 20.2803L66.3989 22.1357C66.5172 22.3211 66.6279 22.4973 66.7319 22.6592C66.9387 22.981 67.1121 23.2496 67.2407 23.4424C67.305 23.5388 67.3568 23.6136 67.394 23.666C67.4126 23.6922 67.426 23.7103 67.4341 23.7207L67.4087 23.6963C67.4661 23.7491 67.5366 23.8358 67.5688 23.9609C67.6025 24.0919 67.5815 24.2136 67.5415 24.3066C67.5291 24.3353 67.5118 24.3599 67.4966 24.3838C67.509 24.3798 67.5222 24.376 67.5347 24.3721C68.2044 24.1588 68.8842 23.9573 69.5727 23.7676C69.633 23.751 69.694 23.7342 69.7544 23.7178C70.0828 23.6285 70.4139 23.5419 70.7466 23.458C70.7747 23.4509 70.8034 23.4436 70.8315 23.4365C71.17 23.3518 71.5112 23.2695 71.854 23.1904C71.8795 23.1846 71.9056 23.1787 71.9311 23.1729C72.2796 23.093 72.6309 23.0154 72.9839 22.9414C73.0353 22.9306 73.0876 22.9208 73.1391 22.9102C73.4481 22.8463 73.7593 22.7839 74.0718 22.7246C74.1301 22.7135 74.1891 22.7023 74.2475 22.6914C74.5945 22.6266 74.9442 22.564 75.2954 22.5049C75.3475 22.4961 75.4004 22.4881 75.4526 22.4795C76.1682 22.3609 76.8933 22.2541 77.6264 22.1592C77.7078 22.1486 77.79 22.1382 77.8716 22.1279C78.6083 22.0355 79.3545 21.9548 80.1089 21.8867C80.1662 21.8815 80.2243 21.8761 80.2817 21.8711C80.665 21.8375 81.0512 21.8075 81.4389 21.7803C81.4645 21.7785 81.4906 21.7762 81.5161 21.7744C82.3295 21.7182 83.1535 21.6764 83.9868 21.6484C84.0103 21.6476 84.0345 21.6463 84.0581 21.6455C84.4714 21.632 84.8879 21.6217 85.3061 21.6152C85.3219 21.615 85.3382 21.6145 85.354 21.6143C85.7783 21.608 86.2059 21.6064 86.6352 21.6074C86.6333 21.6057 86.6314 21.6032 86.6294 21.6016C86.5936 21.572 86.5594 21.5409 86.5298 21.5068C86.3885 21.344 86.3286 21.1526 86.31 21.0195L86.2925 20.8955L86.3364 20.7773C86.6905 19.8184 87.5087 17.8467 88.4897 15.4834C89.6283 12.7403 90.9936 9.45225 92.1333 6.54492C93.2808 3.61775 94.1775 1.13158 94.4057 -0.0371094L94.6772 -1.42578L95.3384 -0.174805ZM57.7358 97.7412C121.714 187.971 161.137 11.4356 83.9448 34.3877C65.622 39.8358 53.9273 59.4946 53.9272 78.4102C53.9272 85.3223 55.295 91.8733 57.7358 97.7412ZM57.4448 38.4746C55.917 39.3544 54.154 40.5202 52.394 41.9492C49.7661 44.0831 47.1633 46.7867 45.3452 49.9756C45.1449 50.327 44.9542 50.6848 44.7739 51.0479C44.7154 51.1657 44.6573 51.2842 44.6011 51.4033C44.2195 52.2109 43.8587 53.017 43.5161 53.8154C42.6483 55.8382 41.9045 57.8196 41.2807 59.6973C40.672 61.5297 40.1761 63.2633 39.7915 64.8408C39.4995 66.0385 39.2711 67.1441 39.105 68.1318C39.0053 68.7243 38.9282 69.2747 38.8725 69.7773C38.7972 70.4577 38.7639 71.0365 38.7651 71.5078C38.7663 71.9792 38.8021 72.3432 38.8667 72.5938C38.9637 72.9695 39.0628 73.3029 39.1557 73.5977C39.2048 72.9826 39.2669 72.3227 39.3511 71.667C39.3993 71.2906 39.4542 70.9103 39.5171 70.5371C39.5799 70.1641 39.6506 69.7979 39.73 69.4492C39.8886 68.752 40.0825 68.1241 40.3188 67.6514C40.671 66.947 41.2849 65.5168 41.977 63.8486C43.1307 61.0681 44.5015 57.6251 45.2378 55.7754L45.2388 55.7744C45.3922 55.3887 45.5175 55.072 45.6069 54.8486C45.6286 54.7944 45.6554 54.7369 45.6821 54.6748L45.7973 54.4102C45.8676 54.2572 45.9487 54.0881 46.0386 53.9053C46.1015 53.7773 46.1701 53.6427 46.2417 53.502C46.2772 53.4321 46.3126 53.3598 46.3501 53.2871C46.3945 53.2008 46.4407 53.1125 46.4878 53.0225C46.5565 52.8909 46.6278 52.755 46.7016 52.6162C46.7623 52.5022 46.8254 52.3859 46.8891 52.2676C46.9409 52.1716 46.9937 52.074 47.0473 51.9756C47.2707 51.5655 47.5099 51.1351 47.7583 50.6953C47.7865 50.6454 47.8148 50.595 47.8432 50.5449C48.1075 50.0787 48.3814 49.6024 48.6587 49.1299C48.8298 48.8383 49.0025 48.5467 49.1753 48.2588C49.5211 47.6823 49.8676 47.1186 50.2016 46.5908C50.3685 46.3272 50.5325 46.0721 50.6919 45.8291C51.0073 45.3482 51.3102 44.905 51.5864 44.5273C51.7934 44.2444 51.9852 43.9972 52.1567 43.7988C52.2138 43.7328 52.2694 43.6721 52.3218 43.6172C53.1805 42.7156 55.4734 40.4309 57.4448 38.4746Z" fill="#E16508"/>
<path fill-rule="evenodd" clip-rule="evenodd" d="M33.0395 103.456C33.1488 103.449 33.2342 103.48 33.2817 103.501C33.3699 103.541 33.4275 103.597 33.4458 103.615C33.4924 103.662 33.5299 103.714 33.5522 103.747C33.5781 103.785 33.6029 103.832 33.6323 103.881C33.6612 103.929 33.6944 103.98 33.7251 104.034C33.8521 104.26 34.019 104.576 34.2007 104.926C34.3847 105.28 34.5862 105.67 34.7837 106.048C34.9816 106.426 35.176 106.791 35.3472 107.095C35.6734 107.673 36.1896 108.358 36.6372 108.91C36.8586 109.183 37.0588 109.42 37.2036 109.587C37.2757 109.67 37.3345 109.736 37.3745 109.781C37.3944 109.804 37.4101 109.822 37.4204 109.833C37.4254 109.839 37.4296 109.843 37.4321 109.846L37.4341 109.849L37.7925 110.245L37.3843 110.567C37.381 110.57 37.3788 110.574 37.3755 110.577L32.2173 114.671L24.5288 120.153L24.062 120.504C21.8068 122.195 18.4115 124.744 15.5581 126.893C14.1317 127.967 12.8407 128.941 11.895 129.658C11.4221 130.017 11.0354 130.311 10.7622 130.521C10.6259 130.625 10.5184 130.708 10.4429 130.768C10.3504 130.84 10.3365 130.852 10.352 130.837C10.3481 130.841 10.3413 130.848 10.3325 130.856C10.328 130.861 10.3021 130.884 10.2661 130.907C10.2404 130.923 10.1587 130.959 10.1011 130.976C9.95815 130.985 9.64005 130.839 9.52587 130.66C9.4989 130.549 9.50497 130.386 9.51708 130.339C9.52504 130.315 9.54067 130.279 9.54735 130.265C9.55901 130.241 9.57011 130.223 9.57372 130.217C9.57868 130.209 9.58357 130.202 9.58641 130.198C9.59199 130.19 9.59743 130.183 9.60106 130.178C9.61486 130.159 9.63489 130.133 9.65672 130.105C9.70305 130.047 9.77656 129.956 9.87157 129.839C10.0625 129.603 10.3488 129.25 10.7085 128.81C11.4282 127.928 12.4437 126.69 13.5796 125.306C15.8517 122.537 18.6082 119.184 20.4536 116.941L20.7993 116.521L27.1147 110.553L27.4634 110.161C28.374 109.137 29.641 107.544 30.7026 106.185C31.2319 105.507 31.7083 104.889 32.06 104.433C32.2354 104.205 32.3806 104.016 32.4858 103.881C32.5382 103.814 32.5828 103.758 32.6157 103.717C32.6376 103.689 32.6787 103.636 32.7114 103.604L32.7134 103.602C32.7232 103.592 32.7351 103.584 32.7456 103.575C32.8285 103.506 32.9308 103.463 33.0395 103.456ZM9.66161 130.115C9.6539 130.122 9.64763 130.128 9.64501 130.131L9.69676 130.088C9.67772 130.102 9.66422 130.113 9.66161 130.115Z" fill="#E16508"/>
<path fill-rule="evenodd" clip-rule="evenodd" d="M152.71 91.6338L152.881 91.6494L153.006 91.7666C153.099 91.8536 153.212 91.9366 153.345 92.0186C153.479 92.1005 153.635 92.182 153.817 92.2646C154.182 92.4304 154.619 92.5902 155.148 92.7822C161.998 95.2707 170.932 96.498 177.929 100.286C178.132 100.396 178.233 100.631 178.174 100.854C178.115 101.076 177.911 101.23 177.68 101.226C171.216 101.083 164.168 100.36 157.873 101.151C157.784 101.162 157.358 101.224 156.769 101.312C156.179 101.4 155.422 101.514 154.673 101.63C154.194 101.704 153.718 101.781 153.294 101.849C153.059 101.886 152.838 101.92 152.642 101.952C152.367 101.998 152.14 102.037 151.984 102.066C151.906 102.081 151.849 102.092 151.815 102.1C151.756 102.124 151.684 102.142 151.599 102.137C151.326 102.12 151.207 101.911 151.185 101.869C151.153 101.807 151.142 101.752 151.138 101.734C151.13 101.692 151.128 101.657 151.127 101.647C151.127 101.633 151.127 101.62 151.127 101.611C151.128 101.581 151.131 101.545 151.133 101.515C151.139 101.449 151.15 101.352 151.163 101.235C151.189 101 151.228 100.661 151.274 100.267C151.367 99.4762 151.486 98.4579 151.578 97.5693C151.763 95.7809 152.078 92.6759 152.104 92.3828L152.124 92.2051C152.132 92.1523 152.142 92.1056 152.153 92.0645C152.163 92.0264 152.18 91.9687 152.21 91.9102C152.225 91.8826 152.256 91.829 152.31 91.7764C152.32 91.7668 152.335 91.7535 152.353 91.7393C152.409 91.6958 152.505 91.6404 152.633 91.6328L152.71 91.6338ZM151.908 102.05L151.912 102.049C151.915 102.046 151.922 102.039 151.931 102.032C151.924 102.038 151.916 102.044 151.908 102.05ZM151.249 101.313C151.247 101.315 151.246 101.318 151.245 101.319C151.253 101.31 151.261 101.3 151.269 101.292C151.259 101.302 151.252 101.31 151.249 101.313Z" fill="#E16508"/>
<path d="M175.122 63.8408L175.773 63.8857L175.559 64.5039C175.549 64.5321 175.538 64.5601 175.526 64.5869C175.488 64.6674 175.439 64.7415 175.385 64.8096C175.35 64.8545 175.312 64.8971 175.273 64.9365C175.245 64.9652 175.215 64.9918 175.187 65.0176C175.176 65.0275 175.166 65.0383 175.155 65.0479C175.072 65.121 174.978 65.1949 174.875 65.2676C174.773 65.3403 174.661 65.4127 174.544 65.4844C174.076 65.7719 173.459 66.0813 172.775 66.3936C172.014 66.7405 171.149 67.0986 170.279 67.4492C169.592 67.7259 168.901 67.9987 168.252 68.2529L168.215 68.2686C168.031 68.3408 167.851 68.4126 167.675 68.4814C166.502 68.9425 165.548 69.3239 165.082 69.5674C164.692 69.7703 163.784 70.1684 162.6 70.6699C160.477 71.5697 157.462 72.8015 154.943 73.8301C153.62 74.3706 152.427 74.858 151.559 75.2168C151.125 75.3962 150.774 75.5427 150.53 75.6475C150.408 75.6999 150.315 75.7412 150.253 75.7695C150.222 75.7839 150.203 75.7933 150.194 75.7979C150.194 75.7979 150.198 75.7949 150.202 75.793C150.206 75.7904 150.217 75.7834 150.231 75.7734L150.233 75.7705L150.228 75.7734C150.189 75.8027 150.142 75.8286 150.09 75.8477C150.023 75.872 149.945 75.8856 149.859 75.875C149.691 75.854 149.586 75.7584 149.551 75.7236C149.477 75.6488 149.434 75.5611 149.418 75.5283C149.376 75.4392 149.333 75.3199 149.294 75.2012C149.214 74.9543 149.112 74.598 148.999 74.2002C148.778 73.43 148.505 72.474 148.209 71.6699C147.899 70.8264 147.466 69.6721 147.095 68.6953C146.718 67.7021 146.418 66.9285 146.365 66.8164C146.284 66.6461 146.249 66.4601 146.287 66.2783C146.292 66.2526 146.299 66.2267 146.307 66.2012C146.371 66.0055 146.509 65.8655 146.658 65.7949L146.662 65.793L146.829 65.7139L147.009 65.7656C147.029 65.7713 147.059 65.7774 147.096 65.7832C147.209 65.8004 147.403 65.8164 147.693 65.8232C148.062 65.8319 148.542 65.825 149.116 65.8057C149.402 65.796 149.712 65.7834 150.041 65.7676C150.698 65.736 151.435 65.6921 152.233 65.6396C152.632 65.6134 153.046 65.5853 153.473 65.5547C156.886 65.3103 161.101 64.9393 164.91 64.6045H164.913L164.919 64.6035C166.173 64.4934 167.383 64.3874 168.504 64.291L171.563 64.0361C172.465 63.9648 173.24 63.9088 173.84 63.874C174.28 63.8486 174.647 63.833 174.903 63.834C174.988 63.8343 175.062 63.8367 175.122 63.8408Z" fill="#E16508"/>
<path d="M32.5806 61.0137C32.6217 61.017 32.6658 61.0254 32.7114 61.041C32.8393 61.085 32.9293 61.1694 32.9848 61.2539C33.0078 61.2889 33.0262 61.3242 33.0395 61.3584C33.0797 61.4619 33.0811 61.5554 33.0815 61.5938C33.0828 61.7245 33.0527 61.8758 33.0229 62.0029C32.9589 62.2761 32.8418 62.6596 32.7143 63.0762C32.4648 63.8916 32.1606 64.8871 32.0171 65.748C31.988 65.9225 31.961 66.1168 31.9321 66.3252C31.8114 67.1955 31.6921 68.3176 31.5991 69.3252C31.5417 69.9471 31.4939 70.5211 31.4604 70.958C31.4437 71.1766 31.4302 71.3605 31.4214 71.498C31.417 71.5668 31.4138 71.6231 31.4116 71.666C31.4105 71.6875 31.4101 71.7055 31.4097 71.7188C31.4094 71.7251 31.4088 71.7306 31.4087 71.7344C31.4086 71.737 31.4087 71.7393 31.4087 71.7393C31.4087 71.7811 31.4065 71.822 31.4009 71.8604C31.3839 71.9766 31.3427 72.0772 31.2876 72.1621C31.2141 72.2753 31.1148 72.361 31.0141 72.4189C30.8821 72.4949 30.7431 72.5288 30.6294 72.541L30.5249 72.5469H30.4634L30.4038 72.5322C29.8646 72.3978 29.288 72.2558 28.6802 72.1074C25.0325 71.2173 20.2534 70.1061 15.6118 69.1299C14.8383 68.9672 14.0681 68.8078 13.3081 68.6543C12.5481 68.5008 11.798 68.3529 11.064 68.2119C8.86093 67.7892 6.80022 67.4305 5.04051 67.1797C4.1608 67.0543 3.3593 66.9562 2.65477 66.8906C2.42004 66.8689 2.19544 66.8504 1.9829 66.8359C1.76792 66.8214 1.56654 66.8113 1.37938 66.8047C0.817802 66.785 0.382187 66.8005 0.0815295 66.8506C-0.176616 66.8933 -0.425015 66.7299 -0.48683 66.4756C-0.548569 66.2212 -0.402894 65.9613 -0.153822 65.8809C0.398545 65.7033 1.05178 65.5411 1.73583 65.3965C1.90703 65.3603 2.08032 65.325 2.25438 65.291C2.77589 65.1893 3.30555 65.098 3.81395 65.0176C4.49219 64.9102 5.13319 64.8234 5.66747 64.7578C6.20123 64.6924 6.62883 64.6483 6.88133 64.6289C7.36203 64.5918 13.657 63.7117 19.9106 62.8252C23.0288 62.3832 26.1262 61.9408 28.4624 61.6045C29.6301 61.4364 30.6082 61.2944 31.3032 61.1924C31.6505 61.1414 31.9277 61.1007 32.1216 61.0713C32.3099 61.0427 32.3923 61.0295 32.4028 61.0283L32.4653 61.0166C32.4998 61.0121 32.5391 61.0103 32.5806 61.0137Z" fill="#E16508"/>
<path d="M20.269 29.0312C20.3917 29.0473 20.5192 29.0669 20.6489 29.0879C20.6946 29.0953 20.7412 29.1034 20.7876 29.1113C22.5359 29.4105 24.8106 30.1 26.1841 30.5596C26.6136 30.7033 26.956 30.8234 27.1655 30.9033C27.4494 31.0117 28.972 31.6868 30.9868 32.5859C31.2785 32.7162 31.581 32.8516 31.8911 32.9902C32.9118 33.4463 34.0207 33.9416 35.1352 34.4404C37.2629 35.3928 39.4263 36.3607 41.0776 37.0947C41.6841 37.3643 42.2221 37.6011 42.6626 37.7949C42.8214 37.8647 42.9676 37.9305 43.1001 37.9883C43.3496 38.0971 43.5498 38.1829 43.6909 38.2422C43.7612 38.2717 43.8159 38.2949 43.853 38.3096C43.8713 38.3168 43.884 38.3211 43.8901 38.3232L43.9087 38.3281L43.9126 38.3301C43.9416 38.3397 43.973 38.353 44.0044 38.3701C44.0128 38.3748 44.0214 38.3805 44.0298 38.3857C44.0413 38.3929 44.0534 38.4007 44.0649 38.4092C44.0678 38.4113 44.0709 38.4138 44.0737 38.416C44.0895 38.4282 44.1062 38.4411 44.1216 38.4561C44.1698 38.5031 44.205 38.5556 44.23 38.6084C44.251 38.6525 44.2638 38.6976 44.272 38.7402C44.2736 38.7488 44.2757 38.7573 44.2768 38.7656C44.3002 38.9319 44.2406 39.0666 44.2192 39.1133C44.1646 39.2322 44.0729 39.3567 43.9917 39.459C43.8171 39.6787 43.5466 39.9755 43.2534 40.2979C43.2277 40.3261 43.2015 40.355 43.1753 40.3838C42.8185 40.7763 42.4228 41.2199 42.0581 41.666C41.8523 41.9177 41.6542 42.1691 41.4829 42.416C41.3685 42.581 41.2444 42.7698 41.1118 42.9736C40.6402 43.6991 40.0743 44.6287 39.5766 45.4717C39.2591 46.0096 38.9712 46.5088 38.7544 46.8896C38.646 47.0801 38.5555 47.2408 38.4888 47.3613C38.4555 47.4215 38.428 47.471 38.4077 47.5088C38.3977 47.5274 38.3893 47.543 38.3833 47.5547C38.3803 47.5605 38.3782 47.5659 38.3764 47.5693C38.3755 47.5711 38.3735 47.5732 38.3735 47.5732C38.2294 47.8784 37.9584 48.0005 37.727 48.0195C37.6766 48.0236 37.6268 48.0234 37.5796 48.0195C37.5195 48.0146 37.4625 48.0026 37.4106 47.9893C37.3404 47.9711 37.2775 47.9487 37.229 47.9258L37.1743 47.9004L37.1264 47.8613C36.535 47.3776 35.9454 46.852 35.3589 46.2969C35.1218 46.0725 34.8838 45.8441 34.6479 45.6104C34.2382 45.2042 33.8302 44.7845 33.4253 44.3555C32.8181 43.7123 32.2168 43.0471 31.6245 42.3721C31.427 42.1469 31.2302 41.9203 31.0347 41.6934C29.8616 40.3321 28.7258 38.9455 27.646 37.6279C27.2468 37.1409 26.8551 36.6631 26.4722 36.1992C26.0892 35.7354 25.7146 35.2848 25.3491 34.8525C24.9578 34.3896 24.5763 33.9471 24.2065 33.5303C23.8856 33.1687 23.5726 32.8255 23.269 32.5059C22.6163 31.8186 22.0139 31.2453 21.4673 30.8154C21.3585 30.7299 21.252 30.6515 21.1499 30.5791C21.0849 30.533 21.0208 30.4892 20.9585 30.4482C20.6224 30.2278 20.3253 30.0817 20.0679 30.0088C19.8166 29.9369 19.6627 29.6829 19.7153 29.4268C19.7682 29.1708 20.0099 28.9981 20.269 29.0312Z" fill="#E16508"/>
<path d="M142.207 14.1475C142.207 14.2897 142.185 14.442 142.149 14.5986C142.113 14.7556 142.063 14.9173 142.004 15.0781C141.999 15.0943 141.992 15.1106 141.986 15.127C141.867 15.4454 141.706 15.8002 141.516 16.1738C141.116 16.9607 140.574 17.8693 139.999 18.7734C139.437 19.6552 138.838 20.5421 138.297 21.3223C138.006 21.7425 137.733 22.1327 137.492 22.4736C137.262 22.7978 137.06 23.0781 136.902 23.2998L136.903 23.3008L136.809 23.4326L136.808 23.4346C136.53 23.8236 135.954 24.72 135.24 25.8564C134.883 26.4248 134.491 27.0537 134.085 27.709C133.68 28.3642 133.26 29.0463 132.846 29.7217C132.434 30.3946 132.028 31.0593 131.651 31.6816C131.274 32.3037 130.923 32.8838 130.622 33.3877C127.485 32.5664 123.231 30.7243 122.421 29.3652L122.473 29.2686L122.559 29.2021C123.103 28.7851 124.422 27.746 126.125 26.3877C127.03 25.6665 128.044 24.8546 129.108 23.999C130.048 23.2432 131.028 22.4521 132.007 21.6582C136.198 18.2607 140.33 14.8413 141.348 13.7979C141.352 13.7937 141.357 13.7892 141.361 13.7852L142.207 12.9189V14.1475Z" fill="#E16508"/>
<path d="M116.551 16.1738C116.552 16.1782 116.554 16.1831 116.554 16.1875C116.565 16.2637 116.571 16.3435 116.574 16.4258C116.585 16.7226 116.552 17.0539 116.497 17.3818C116.473 17.5213 116.445 17.6605 116.416 17.7959C116.387 17.9354 116.354 18.0759 116.32 18.2148C116.286 18.3543 116.25 18.4928 116.214 18.627L116.005 19.3682C115.952 19.5527 115.906 19.712 115.872 19.8408C115.835 19.9779 115.82 20.0516 115.817 20.0791L115.816 20.0811C115.784 20.3413 115.469 21.8684 115.171 23.3037C115.019 24.0379 114.869 24.763 114.758 25.3125C114.703 25.5872 114.658 25.8169 114.626 25.9814C114.611 26.064 114.599 26.1282 114.591 26.1719C114.588 26.1934 114.586 26.2071 114.585 26.2139C114.581 26.2857 114.561 26.3731 114.506 26.459C114.468 26.5196 114.42 26.5654 114.373 26.5996C114.325 26.6337 114.276 26.6567 114.234 26.6709C114.199 26.6825 114.165 26.6893 114.133 26.6934C114.039 26.7056 113.963 26.6912 113.94 26.6865C113.85 26.6685 113.757 26.6299 113.694 26.6025C113.623 26.5718 113.538 26.5313 113.448 26.4863L113.159 26.3408C113.112 26.317 113.063 26.2932 113.014 26.2686C112.894 26.2078 112.769 26.1445 112.642 26.083C112.494 26.011 112.343 25.9399 112.195 25.876L111.874 25.7471C111.418 25.5795 110.789 25.3565 110.254 25.1709C109.988 25.0783 109.745 24.995 109.561 24.9336C109.469 24.903 109.391 24.8772 109.334 24.8594C109.269 24.8388 109.251 24.8343 109.259 24.8359C109.15 24.8132 109.059 24.7658 108.984 24.7061C108.891 24.6325 108.822 24.5381 108.783 24.4365C108.738 24.3213 108.73 24.2087 108.738 24.1191C108.74 24.0895 108.745 24.0622 108.749 24.0381L108.775 23.9141L108.857 23.8174C108.867 23.805 108.879 23.7925 108.89 23.7793C109.143 23.4814 109.598 22.9755 110.153 22.3633C110.307 22.1931 110.469 22.0137 110.636 21.8291C111.565 20.8061 112.677 19.5813 113.629 18.4893C114.596 17.3816 115.36 16.4538 115.628 16.0029L116.352 14.7871L116.551 16.1738Z" fill="#E16508"/>
</g>
<defs>
<clipPath id="clip0_402_4">
<rect width="191" height="184" fill="white"/>
</clipPath>
</defs>
</svg>
