<svg width="191" height="184" viewBox="0 0 191 184" fill="none" xmlns="http://www.w3.org/2000/svg">
<mask id="path-1-inside-1_305_2" fill="white">
<path d="M158.901 94.9499C155.78 93.269 153.638 93.0433 152.665 92.1319C152.653 92.1308 152.624 92.1883 152.603 92.4267C152.577 92.7247 152.261 95.8348 152.076 97.6205C151.892 99.4061 151.596 101.708 151.631 101.636C151.667 101.564 157.445 100.7 157.811 100.655C158.178 100.609 158.387 95.685 158.901 94.9499Z"/>
<path d="M94.9583 0C94.4807 2.44562 91.2901 10.1322 89.0137 15.6166C88.0299 17.9867 87.2168 19.9454 86.8672 20.8922C86.8849 21.0191 86.989 21.2634 87.2642 21.2251C87.6082 21.1773 91.2681 21.1464 93.3746 21.1639C94.4016 21.1724 95.5943 21.3239 96.5323 21.4431C97.5181 21.5684 98.2223 21.6578 98.1565 21.5079C98.0921 21.361 97.6533 18.2455 97.2037 15.0536L97.2037 15.0531L97.2034 15.0514C96.757 11.8819 96.3 8.63756 96.1885 8.1503C96.123 7.86383 96.0822 7.21968 96.0303 6.40106C95.905 4.42477 95.7153 1.43161 94.9583 0Z"/>
<path d="M58.0474 20.3872C58.3951 16.3803 58.7752 12.0014 58.2052 10.0723C59.4179 11.0471 60.491 13.1811 61.2426 14.6757C61.5834 15.3533 61.8581 15.8994 62.0497 16.1466C62.3677 16.5567 63.6562 18.591 64.8574 20.4876L64.858 20.4884L64.8585 20.4893C65.9773 22.2556 67.0202 23.9021 67.1327 24.0055C67.2524 24.1155 66.6436 24.2943 65.7914 24.5447C64.9807 24.783 63.9496 25.086 63.1159 25.4558C61.4059 26.2145 58.462 27.5876 58.2052 27.7568C57.9998 27.8922 57.8074 27.7121 57.7369 27.6051C57.5416 26.2163 57.7853 23.4078 58.0474 20.3878L58.0474 20.3872Z"/>
<path fill-rule="evenodd" clip-rule="evenodd" d="M136.487 129.597C127.267 139.603 112.68 145.32 90.3449 143.322C74.8855 142.356 61.8805 136.149 52.1055 127.009C53.9546 126.976 56.2018 126.897 58.2524 126.802C60.8768 126.68 63.4432 126.522 64.3609 126.377C65.5709 126.186 66.7083 125.666 67.6037 125.01C67.9065 124.788 68.2373 124.508 68.5507 124.172C68.7096 124.463 68.8954 124.756 69.1133 125.034C69.926 126.07 71.2509 126.964 73.0707 126.868C75.8539 126.722 77.3249 124.889 77.853 123.657C78.0154 123.278 78.1493 122.76 78.2415 122.38C78.3532 121.92 78.4738 121.357 78.5874 120.748C78.8102 119.552 79.0295 118.054 79.0747 116.741C79.0826 116.514 79.0991 116.224 79.1228 115.885C86.0566 119.638 91.9651 121.408 93.7283 121.408C93.9403 121.439 94.1513 121.468 94.3612 121.497C94.6615 122.51 95.0512 123.453 95.5438 124.324C96.6954 126.358 98.3227 127.839 100.343 128.874C102.609 130.035 105.137 130.144 107.432 129.779C109.74 129.411 112.02 128.534 113.999 127.459C118.044 125.26 119.111 121.61 119.72 119.307C121.263 118.608 122.659 117.793 123.919 116.876C124.099 117.489 124.302 118.109 124.528 118.738C125.495 121.421 126.383 123.481 127.335 125.02C126.031 127.095 124.869 128.792 124.022 129.943C124.24 129.967 126.492 129.183 128.971 127.092C130.128 128.197 131.404 128.75 132.828 128.987C133.005 129.017 133.236 129.062 133.511 129.116C134.257 129.263 135.324 129.473 136.487 129.597ZM73.518 130.035C75.1788 131.142 80.093 134.428 82.656 136.017C79.2985 134.736 72.8487 132.549 71.68 131.873C70.5113 131.196 66.8619 128.687 65.2472 127.508C65.7634 127.153 68.0041 126.359 68.3315 126.103C68.6934 126.359 69.321 127.19 69.3826 127.278C69.9208 128.047 71.442 128.651 73.518 130.035Z"/>
<path d="M147.146 110.033C149.24 103.042 150.267 95.4154 150.546 87.6123C149.911 88.4895 149.058 89.1201 148.009 89.4406C146.573 89.8793 145.205 89.5608 144.704 89.444C144.687 89.4401 144.671 89.4363 144.656 89.4329C144.513 89.4 144.374 89.3593 144.239 89.3135C144.032 91.7683 143.65 94.0659 143.014 95.881C142.561 97.175 142.038 98.7838 141.451 100.588L141.45 100.59C140.085 104.789 138.377 110.045 136.401 114.848C136.668 116.029 136.936 117.063 137.16 117.833C137.32 118.32 137.715 119.12 138.302 119.741C138.866 120.338 139.419 120.592 140.022 120.569C140.614 120.547 141.171 120.387 141.692 120.131C140.451 119.435 139.819 118.186 139.572 117.237C139.239 115.96 139.346 114.55 139.746 113.418C140.131 112.326 140.899 111.624 141.58 111.199C142.249 110.782 142.971 110.541 143.582 110.391C144.804 110.092 146.119 110.033 147.047 110.033C147.08 110.033 147.113 110.033 147.146 110.033Z"/>
<path d="M135.436 109.486C135.987 108.134 136.493 106.771 136.94 105.415C138.562 100.488 140.03 94.3581 141.216 88.6408C140.871 89.0086 140.465 89.4593 139.988 90.0095C137.543 92.8312 135.637 98.6062 135.197 104.251C135.078 105.781 135.197 107.624 135.436 109.486Z"/>
<path d="M144.174 77.1225C144.078 75.8797 143.968 74.7787 143.86 73.8907C143.73 74.7818 143.564 75.8492 143.367 77.0538C142.106 76.9832 140.59 77.0743 139.191 77.6238C137.662 78.2245 135.667 79.4244 133.67 81.0559C132.579 65.8819 128.656 57.3745 122.612 52.6048C122.715 52.4699 122.799 52.3548 122.864 52.2619L123.012 52.0508C123.665 51.1182 125.206 48.9184 126.658 46.7987C127.444 45.6498 128.215 44.51 128.808 43.6021C129.102 43.1505 129.366 42.7366 129.569 42.3989C129.67 42.2316 129.769 42.0607 129.854 41.901L129.857 41.8964C129.91 41.7975 130.053 41.5288 130.154 41.2127C138.772 51.1454 144.874 64.2953 149.453 79.0972C148.759 78.5633 148.083 78.2341 147.767 78.08L147.766 78.0793C147.728 78.061 147.696 78.0453 147.669 78.0319C146.824 77.6095 145.493 77.2727 144.174 77.1225Z"/>
<path fill-rule="evenodd" clip-rule="evenodd" d="M120.778 32.4967C120.047 32.8887 119.432 33.3627 118.988 33.7291C118.175 34.4003 117.419 35.1663 116.943 35.6482C116.859 35.7341 116.783 35.811 116.717 35.8767C116.462 36.1319 116.058 36.5957 115.581 37.1634C115.387 36.8257 115.13 36.5036 114.8 36.2082C113.56 35.0978 112.058 35.0511 110.828 35.5325C110.727 35.152 110.551 34.6631 110.239 34.226C109.871 33.7112 109.122 32.8514 107.885 32.2878C106.576 31.6907 104.958 31.5374 103.139 32.1241C101.323 32.7098 99.9923 33.8178 99.2953 35.3552C98.6523 36.7737 98.7148 38.2006 98.8708 39.1884C99.0243 40.1603 99.4943 41.7737 99.9328 43.1274C100.342 44.3902 100.865 45.8676 101.268 46.6572C99.2767 46.5752 97.2185 46.5415 95.1002 46.5277C95.092 46.3657 95.0836 46.2035 95.0752 46.0419C94.9543 43.7252 94.7948 41.158 94.651 40.2473C94.4977 39.2761 94.088 37.8817 93.7163 36.7665C93.5217 36.1827 93.3161 35.6115 93.1256 35.1339C92.9844 34.78 92.7257 34.1426 92.4009 33.6879C92.3992 33.6856 92.3958 33.6801 92.3905 33.6718L92.3901 33.6713C92.2852 33.507 91.4846 32.253 89.976 31.8274C88.2354 31.3365 86.6182 32.1103 85.3245 33.0904C84.3504 33.8283 83.4335 34.9473 82.6781 35.9825C81.8827 37.0723 81.1018 38.3017 80.4205 39.4405C80.2004 39.8085 79.9883 40.1709 79.7871 40.5207C79.453 39.8985 79.1293 39.2921 78.8281 38.7279L78.8272 38.7261C78.5149 38.1411 78.2268 37.6015 77.9766 37.1369C77.769 36.7514 77.5917 36.3837 77.4003 35.9872L77.396 35.9782C77.3734 35.9314 77.3507 35.8843 77.3276 35.8366C77.1259 35.4191 76.8754 34.9044 76.5874 34.4381C75.9926 33.4751 74.8202 32.0674 72.6946 32.0674C71.5293 32.0674 70.6313 32.6731 70.2239 32.9732C69.707 33.354 69.224 33.8272 68.8056 34.2852C67.959 35.2119 67.1152 36.3663 66.4418 37.4184C66.243 37.7291 65.9368 38.182 65.5327 38.7798C65.3584 39.0376 65.1659 39.3224 64.956 39.6343C64.2796 40.6392 63.465 41.8634 62.6273 43.1889C60.9813 45.7933 59.1374 48.9569 58.1081 51.7018C57.6736 52.8603 57.2067 54.2829 56.8193 55.4695C56.7019 55.829 56.5955 56.1549 56.5004 56.4442C51.2214 61.2372 48.4392 67.8725 49.4468 76.5782C49.3476 76.5943 49.251 76.6104 49.1575 76.6265C49.1072 76.6352 49.0558 76.644 49.0034 76.6529C48.0795 76.8106 46.8391 77.0223 45.8169 77.6781C44.5399 78.4973 43.9468 79.7218 43.5208 80.7868C43.0068 82.0718 42.2017 84.8062 41.5379 88.1758C41.5233 87.052 41.4341 85.7066 41.1931 84.5013C40.9468 83.27 40.421 81.794 39.8565 80.5477C39.5685 79.912 39.2448 79.2789 38.9041 78.7224C38.6005 78.2264 38.1499 77.5659 37.5597 77.0741C36.4287 76.1316 34.741 75.2188 32.3105 74.761C34.6606 44.3113 53.7517 20.3351 90.3449 22.1442C102.591 22.7496 112.572 26.4578 120.778 32.4967ZM39.598 75.6591C39.6492 73.7625 39.967 69.5387 40.8282 67.8164C41.7796 65.9136 44.593 58.8453 45.7646 55.9017L45.7654 55.8997C45.919 55.5137 46.0444 55.1988 46.1336 54.9759C46.9025 53.0536 51.2083 45.5185 52.746 43.9038C53.9763 42.6121 58.1796 38.4447 60.1274 36.5224C56.3598 38.1371 47.902 43.3195 44.2113 51.1314C39.598 60.8964 37.8295 70.2769 38.4446 72.6604C38.9367 74.5673 39.4186 75.4541 39.598 75.6591Z"/>
<path d="M129.116 34.9796C129.079 34.9391 129.039 34.8957 128.997 34.8498C128.564 34.3775 127.884 33.6362 127.112 33.0518C126.9 32.8913 126.663 32.7279 126.402 32.5735C125.176 31.6269 123.15 30.1207 122.933 30.0059C122.755 29.9115 122.813 29.6954 122.864 29.5991C125.051 27.9223 139.619 16.2877 141.707 14.1477C141.707 15.7212 137.764 21.238 136.495 23.0124L136.402 23.1437C135.265 24.7351 129.35 34.4506 129.116 34.9796Z"/>
<path d="M35.1402 100.312C35.9749 99.3756 36.7824 98.4507 37.4576 97.6439C37.8786 97.1409 38.2635 96.6653 38.5772 96.2512C38.8536 95.8864 39.1944 95.4153 39.4168 94.9705C39.6313 94.5416 39.8614 94.1072 40.0961 93.6645L40.1145 93.6297C40.3697 93.1485 40.6446 92.63 40.8613 92.1744L40.8817 92.1316C40.7046 93.4513 40.5653 94.813 40.4829 96.1804C40.3838 97.8264 40.2449 99.9962 40.0939 102.355L40.0936 102.359C39.951 104.587 39.7976 106.983 39.6566 109.267C39.6275 109.738 39.5988 110.207 39.5707 110.67C37.7869 107.342 36.3039 103.871 35.1402 100.312Z"/>
<path d="M53.3142 89.8059C53.0646 90.6276 52.8091 91.5925 52.5087 92.7268L52.506 92.7373C52.4649 92.8924 52.423 93.0507 52.3801 93.2122C51.9709 94.7547 51.8389 96.6676 51.8479 98.3794C51.8523 99.2159 51.89 99.9638 51.9346 100.538C51.9568 100.826 51.9803 101.063 52.001 101.24C52.0089 101.308 52.0157 101.361 52.0211 101.401C52.0298 101.419 52.0407 101.441 52.0541 101.466C52.1276 101.607 52.2387 101.787 52.3741 101.973C52.4878 102.129 52.5966 102.258 52.6861 102.352C52.849 102.387 53.0628 102.428 53.3255 102.473C53.9346 102.577 54.7 102.687 55.4816 102.791C56.2363 102.892 57.0775 102.995 57.7439 103.077C58.3392 103.15 58.7951 103.206 58.9251 103.228C60.3152 103.459 61.1287 104.488 61.4644 104.984C61.9006 105.629 62.216 106.395 62.3974 107.181C62.6361 108.215 62.3728 109.124 62.1588 109.662C61.9277 110.242 61.6083 110.749 61.3271 111.138C61.0375 111.538 60.727 111.895 60.4487 112.18C60.2318 112.402 59.855 112.769 59.4328 113.022C59.1733 113.178 58.9196 113.276 58.7099 113.34L59.2158 114.655C60.1304 114.633 60.945 114.626 61.5025 114.649C63.8739 114.744 66.284 115.847 67.052 116.199C67.1147 116.228 67.1664 116.251 67.2063 116.269C67.4463 116.376 67.6659 116.503 67.8663 116.645C67.8975 116.405 67.9292 116.167 67.9602 115.933C68.0108 115.552 68.0598 115.184 68.1026 114.841C68.2557 113.617 68.5281 111.377 68.7762 109.09C62.791 104.348 57.132 98.1657 53.592 90.4219C53.4978 90.2157 53.4052 90.0104 53.3142 89.8059Z"/>
<path d="M56.8598 114.737L56.3599 113.873L56.1055 113.466C56.0198 113.46 55.9383 113.454 55.8638 113.448L55.8628 113.448L55.7689 113.441C55.7297 113.438 55.6933 113.435 55.6595 113.433C55.5903 113.428 55.5318 113.424 55.4813 113.421C55.4133 113.417 55.3875 113.416 55.3895 113.416H50.7363C50.6739 113.483 50.6019 113.563 50.5169 113.661C50.4768 113.708 50.4376 113.753 50.3967 113.801C50.36 113.844 50.3219 113.889 50.2805 113.938C50.2438 113.981 50.2046 114.027 50.1637 114.074C50.1708 114.214 50.1835 114.385 50.2026 114.608C50.2728 114.641 50.3618 114.679 50.4757 114.723C50.5852 114.766 50.6788 114.799 50.8178 114.851C50.9146 114.886 51.0621 114.941 51.2141 115.006C51.2478 115.011 51.3235 115.019 51.4539 115.022C51.7549 115.028 52.1142 115.003 52.6448 114.962C53.1605 114.923 54.9565 114.817 56.8598 114.737Z"/>
<path d="M116.435 120.55C111.447 122.097 105.195 122.635 97.419 121.859C98.289 123.969 99.6725 125.421 101.605 126.411C104.757 128.025 109.14 126.949 112.677 125.027C114.837 123.853 115.821 122.221 116.435 120.55Z"/>
<path d="M30.5251 72.0471C21.8878 69.8942 3.69069 65.7422 0 66.3573C2.1529 65.6653 5.92048 65.204 6.92004 65.1271C7.9196 65.0502 32.2166 61.5902 32.5242 61.5133C32.6818 61.4739 32.4961 62.0806 32.2363 62.9299C31.989 63.738 31.6746 64.7656 31.5246 65.6653C31.2171 67.5107 30.9095 71.432 30.9095 71.7396C30.9095 71.9856 30.6532 72.0471 30.5251 72.0471Z"/>
<path d="M20.2055 29.5278C22.0935 30.0627 24.8473 33.4229 28.0335 37.3107C30.9223 40.8358 34.1667 44.7946 37.4435 47.4743C37.5593 47.5291 37.8174 47.5829 37.9224 47.3604C38.0538 47.0823 40.0065 43.6679 41.0726 42.1306C41.5924 41.3811 42.3156 40.5862 42.8843 39.9611C43.482 39.3041 43.9089 38.8348 43.7496 38.8031C43.5855 38.7705 39.1868 36.8016 34.9313 34.8968L34.9306 34.8965C31.1231 33.1922 27.4305 31.5394 26.9882 31.3706C26.0515 31.0133 22.4477 29.8215 20.2055 29.5278Z"/>
<path d="M111.007 22.1649C112.864 20.1202 115.466 17.2545 116.059 16.2584C116.166 17.004 115.78 18.3443 115.525 19.2294C115.419 19.5961 115.336 19.8846 115.32 20.0203C115.292 20.2512 114.984 21.7436 114.682 23.2016L114.682 23.2022L114.682 23.2029C114.378 24.6709 114.082 26.1037 114.087 26.1781C114.093 26.2541 113.798 26.1045 113.386 25.8951C112.994 25.6958 112.496 25.4425 112.047 25.2777C111.127 24.9398 109.52 24.3795 109.362 24.3465C109.235 24.3201 109.228 24.1969 109.24 24.1385C109.542 23.7787 110.205 23.0485 111.007 22.1649Z"/>
<path d="M136.818 48.5539C138.559 48.3906 150.184 47.0004 151.876 46.4925C151.79 47.5201 148.513 49.4427 147.459 50.061L147.381 50.1068C146.422 50.6698 141.295 54.5987 141.23 54.7402C141.197 54.8128 140.942 54.4142 140.586 53.8563C140.246 53.3253 139.815 52.65 139.394 52.099C138.532 50.969 137.009 49.0209 136.848 48.849C136.719 48.7115 136.774 48.595 136.818 48.5539Z"/>
<path d="M164.962 65.1023C157.342 65.7721 148.071 66.5871 146.873 66.2466C146.812 66.2755 146.715 66.3874 146.818 66.6037C146.946 66.8741 148.058 69.8059 148.68 71.4974C148.983 72.3221 149.261 73.2965 149.48 74.0626C149.71 74.8678 149.874 75.443 149.933 75.3728C149.978 75.3178 152.108 74.4482 154.754 73.3673C158.699 71.7562 163.792 69.6757 164.851 69.1235C165.418 68.8276 166.632 68.3518 168.033 67.8027L168.034 67.8021C171.001 66.6394 174.806 65.1482 175.087 64.3394C174.279 64.2832 169.98 64.6612 164.964 65.1021L164.962 65.1023Z"/>
<path d="M154.784 146.507C156.897 152.422 158.713 157.505 158.853 158.315C158.001 158.235 155.645 154.896 153.808 152.292C152.94 151.062 152.188 149.996 151.765 149.516C150.914 148.549 146.232 141.174 142.98 136.05C141.196 133.24 139.842 131.107 139.785 131.079C139.703 131.039 140.222 130.742 140.949 130.327C141.641 129.932 142.521 129.429 143.25 128.938C144.744 127.931 147.326 126.151 147.558 125.962C147.743 125.811 147.875 125.878 147.918 125.931C147.873 127.163 151.654 137.746 154.783 146.505L154.784 146.506L154.784 146.507Z"/>
<path d="M127.133 153.807L127.133 153.806C126.613 147.6 126.002 140.302 126.387 139.381C126.364 139.342 126.267 139.295 126.06 139.415C125.802 139.565 123.016 140.993 121.41 141.801C120.627 142.196 119.707 142.603 118.984 142.923C118.225 143.26 117.682 143.5 117.743 143.528C117.791 143.551 118.704 145.447 119.823 147.771L119.824 147.771C121.469 151.187 123.559 155.525 123.994 156.183C124.229 156.538 124.585 157.33 124.997 158.244C125.868 160.179 126.985 162.66 127.713 162.698C127.825 162.066 127.502 158.212 127.133 153.807Z"/>
<path d="M97.6687 167.929C96.1392 175.675 94.7752 182.582 94.42 183.15C93.7326 182.831 93.4201 178.896 93.2023 176.153C93.1116 175.01 93.0373 174.075 92.9592 173.693C92.8093 172.96 91.8981 164.007 91.1162 156.325L91.116 156.323L91.1159 156.321C90.512 150.388 89.9854 145.214 89.9465 145.173C89.8957 145.118 91.2935 145.218 92.8775 145.33L92.878 145.33L92.8791 145.33L92.8797 145.331L92.8805 145.331L92.8815 145.331C94.0879 145.416 95.4017 145.51 96.2655 145.549C98.0345 145.629 102.02 145.501 102.316 145.459C102.553 145.424 102.625 145.504 102.632 145.549C101.952 146.238 99.6692 157.8 97.6689 167.929L97.6687 167.929Z"/>
<path d="M71.3898 151.511C74.2186 147.7 77.4237 143.383 77.9646 143.226C77.9687 143.206 77.9391 143.158 77.7871 143.126C77.5972 143.086 75.1223 142.362 74.0489 141.983C73.5243 141.798 72.7324 141.502 72.0055 141.23C71.0518 140.874 70.21 140.559 70.2313 140.592C70.2501 140.621 69.64 143.603 69.0187 146.64C68.4031 149.649 67.7765 152.711 67.7395 153.01C67.7176 153.186 67.592 153.595 67.4387 154.095C67.0704 155.295 66.5421 157.016 66.9065 157.285C67.2314 157.113 69.197 154.465 71.3888 151.513L71.3893 151.512L71.3898 151.511Z"/>
<path d="M48.0491 151.71C42.8089 157.062 38.0051 161.967 37.5989 162.006C37.2756 161.57 39.5761 157.793 40.7698 155.833C41.1253 155.249 41.3828 154.826 41.4433 154.701C41.5762 154.427 44.9531 148.842 48.2686 143.358C51.5335 137.957 54.7389 132.655 54.7284 132.621C54.7165 132.581 55.4961 133.211 56.3794 133.925C57.0526 134.469 57.7859 135.061 58.2752 135.443C59.2763 136.225 61.6309 137.885 61.8165 137.997C61.965 138.087 61.981 138.144 61.9705 138.161C61.3751 138.102 54.3924 145.233 48.0491 151.71Z"/>
<path d="M171.156 97.1881C171.002 98.2902 170.694 100.51 170.694 100.571L177.691 100.725L171.156 97.1881Z"/>
<path d="M27.8373 110.493C29.6827 108.417 32.9428 104.08 33.0658 103.957C33.1445 103.879 34.2157 106.107 34.9112 107.34C35.6066 108.573 37.0641 110.185 37.0641 110.185L32.22 114.03L27.8373 110.493Z"/>
<path d="M20.8404 117.259L23.7622 120.104C19.2514 123.487 10.1836 130.299 9.99903 130.484C9.81449 130.669 17.1497 121.744 20.8404 117.259Z"/>
</mask>
<path d="M158.901 94.9499C155.78 93.269 153.638 93.0433 152.665 92.1319C152.653 92.1308 152.624 92.1883 152.603 92.4267C152.577 92.7247 152.261 95.8348 152.076 97.6205C151.892 99.4061 151.596 101.708 151.631 101.636C151.667 101.564 157.445 100.7 157.811 100.655C158.178 100.609 158.387 95.685 158.901 94.9499Z" fill="#E16508"/>
<path d="M94.9583 0C94.4807 2.44562 91.2901 10.1322 89.0137 15.6166C88.0299 17.9867 87.2168 19.9454 86.8672 20.8922C86.8849 21.0191 86.989 21.2634 87.2642 21.2251C87.6082 21.1773 91.2681 21.1464 93.3746 21.1639C94.4016 21.1724 95.5943 21.3239 96.5323 21.4431C97.5181 21.5684 98.2223 21.6578 98.1565 21.5079C98.0921 21.361 97.6533 18.2455 97.2037 15.0536L97.2037 15.0531L97.2034 15.0514C96.757 11.8819 96.3 8.63756 96.1885 8.1503C96.123 7.86383 96.0822 7.21968 96.0303 6.40106C95.905 4.42477 95.7153 1.43161 94.9583 0Z" fill="#E16508"/>
<path d="M58.0474 20.3872C58.3951 16.3803 58.7752 12.0014 58.2052 10.0723C59.4179 11.0471 60.491 13.1811 61.2426 14.6757C61.5834 15.3533 61.8581 15.8994 62.0497 16.1466C62.3677 16.5567 63.6562 18.591 64.8574 20.4876L64.858 20.4884L64.8585 20.4893C65.9773 22.2556 67.0202 23.9021 67.1327 24.0055C67.2524 24.1155 66.6436 24.2943 65.7914 24.5447C64.9807 24.783 63.9496 25.086 63.1159 25.4558C61.4059 26.2145 58.462 27.5876 58.2052 27.7568C57.9998 27.8922 57.8074 27.7121 57.7369 27.6051C57.5416 26.2163 57.7853 23.4078 58.0474 20.3878L58.0474 20.3872Z" fill="#E16508"/>
<path fill-rule="evenodd" clip-rule="evenodd" d="M136.487 129.597C127.267 139.603 112.68 145.32 90.3449 143.322C74.8855 142.356 61.8805 136.149 52.1055 127.009C53.9546 126.976 56.2018 126.897 58.2524 126.802C60.8768 126.68 63.4432 126.522 64.3609 126.377C65.5709 126.186 66.7083 125.666 67.6037 125.01C67.9065 124.788 68.2373 124.508 68.5507 124.172C68.7096 124.463 68.8954 124.756 69.1133 125.034C69.926 126.07 71.2509 126.964 73.0707 126.868C75.8539 126.722 77.3249 124.889 77.853 123.657C78.0154 123.278 78.1493 122.76 78.2415 122.38C78.3532 121.92 78.4738 121.357 78.5874 120.748C78.8102 119.552 79.0295 118.054 79.0747 116.741C79.0826 116.514 79.0991 116.224 79.1228 115.885C86.0566 119.638 91.9651 121.408 93.7283 121.408C93.9403 121.439 94.1513 121.468 94.3612 121.497C94.6615 122.51 95.0512 123.453 95.5438 124.324C96.6954 126.358 98.3227 127.839 100.343 128.874C102.609 130.035 105.137 130.144 107.432 129.779C109.74 129.411 112.02 128.534 113.999 127.459C118.044 125.26 119.111 121.61 119.72 119.307C121.263 118.608 122.659 117.793 123.919 116.876C124.099 117.489 124.302 118.109 124.528 118.738C125.495 121.421 126.383 123.481 127.335 125.02C126.031 127.095 124.869 128.792 124.022 129.943C124.24 129.967 126.492 129.183 128.971 127.092C130.128 128.197 131.404 128.75 132.828 128.987C133.005 129.017 133.236 129.062 133.511 129.116C134.257 129.263 135.324 129.473 136.487 129.597ZM73.518 130.035C75.1788 131.142 80.093 134.428 82.656 136.017C79.2985 134.736 72.8487 132.549 71.68 131.873C70.5113 131.196 66.8619 128.687 65.2472 127.508C65.7634 127.153 68.0041 126.359 68.3315 126.103C68.6934 126.359 69.321 127.19 69.3826 127.278C69.9208 128.047 71.442 128.651 73.518 130.035Z" fill="#E16508"/>
<path d="M147.146 110.033C149.24 103.042 150.267 95.4154 150.546 87.6123C149.911 88.4895 149.058 89.1201 148.009 89.4406C146.573 89.8793 145.205 89.5608 144.704 89.444C144.687 89.4401 144.671 89.4363 144.656 89.4329C144.513 89.4 144.374 89.3593 144.239 89.3135C144.032 91.7683 143.65 94.0659 143.014 95.881C142.561 97.175 142.038 98.7838 141.451 100.588L141.45 100.59C140.085 104.789 138.377 110.045 136.401 114.848C136.668 116.029 136.936 117.063 137.16 117.833C137.32 118.32 137.715 119.12 138.302 119.741C138.866 120.338 139.419 120.592 140.022 120.569C140.614 120.547 141.171 120.387 141.692 120.131C140.451 119.435 139.819 118.186 139.572 117.237C139.239 115.96 139.346 114.55 139.746 113.418C140.131 112.326 140.899 111.624 141.58 111.199C142.249 110.782 142.971 110.541 143.582 110.391C144.804 110.092 146.119 110.033 147.047 110.033C147.08 110.033 147.113 110.033 147.146 110.033Z" fill="#E16508"/>
<path d="M135.436 109.486C135.987 108.134 136.493 106.771 136.94 105.415C138.562 100.488 140.03 94.3581 141.216 88.6408C140.871 89.0086 140.465 89.4593 139.988 90.0095C137.543 92.8312 135.637 98.6062 135.197 104.251C135.078 105.781 135.197 107.624 135.436 109.486Z" fill="#E16508"/>
<path d="M144.174 77.1225C144.078 75.8797 143.968 74.7787 143.86 73.8907C143.73 74.7818 143.564 75.8492 143.367 77.0538C142.106 76.9832 140.59 77.0743 139.191 77.6238C137.662 78.2245 135.667 79.4244 133.67 81.0559C132.579 65.8819 128.656 57.3745 122.612 52.6048C122.715 52.4699 122.799 52.3548 122.864 52.2619L123.012 52.0508C123.665 51.1182 125.206 48.9184 126.658 46.7987C127.444 45.6498 128.215 44.51 128.808 43.6021C129.102 43.1505 129.366 42.7366 129.569 42.3989C129.67 42.2316 129.769 42.0607 129.854 41.901L129.857 41.8964C129.91 41.7975 130.053 41.5288 130.154 41.2127C138.772 51.1454 144.874 64.2953 149.453 79.0972C148.759 78.5633 148.083 78.2341 147.767 78.08L147.766 78.0793C147.728 78.061 147.696 78.0453 147.669 78.0319C146.824 77.6095 145.493 77.2727 144.174 77.1225Z" fill="#E16508"/>
<path fill-rule="evenodd" clip-rule="evenodd" d="M120.778 32.4967C120.047 32.8887 119.432 33.3627 118.988 33.7291C118.175 34.4003 117.419 35.1663 116.943 35.6482C116.859 35.7341 116.783 35.811 116.717 35.8767C116.462 36.1319 116.058 36.5957 115.581 37.1634C115.387 36.8257 115.13 36.5036 114.8 36.2082C113.56 35.0978 112.058 35.0511 110.828 35.5325C110.727 35.152 110.551 34.6631 110.239 34.226C109.871 33.7112 109.122 32.8514 107.885 32.2878C106.576 31.6907 104.958 31.5374 103.139 32.1241C101.323 32.7098 99.9923 33.8178 99.2953 35.3552C98.6523 36.7737 98.7148 38.2006 98.8708 39.1884C99.0243 40.1603 99.4943 41.7737 99.9328 43.1274C100.342 44.3902 100.865 45.8676 101.268 46.6572C99.2767 46.5752 97.2185 46.5415 95.1002 46.5277C95.092 46.3657 95.0836 46.2035 95.0752 46.0419C94.9543 43.7252 94.7948 41.158 94.651 40.2473C94.4977 39.2761 94.088 37.8817 93.7163 36.7665C93.5217 36.1827 93.3161 35.6115 93.1256 35.1339C92.9844 34.78 92.7257 34.1426 92.4009 33.6879C92.3992 33.6856 92.3958 33.6801 92.3905 33.6718L92.3901 33.6713C92.2852 33.507 91.4846 32.253 89.976 31.8274C88.2354 31.3365 86.6182 32.1103 85.3245 33.0904C84.3504 33.8283 83.4335 34.9473 82.6781 35.9825C81.8827 37.0723 81.1018 38.3017 80.4205 39.4405C80.2004 39.8085 79.9883 40.1709 79.7871 40.5207C79.453 39.8985 79.1293 39.2921 78.8281 38.7279L78.8272 38.7261C78.5149 38.1411 78.2268 37.6015 77.9766 37.1369C77.769 36.7514 77.5917 36.3837 77.4003 35.9872L77.396 35.9782C77.3734 35.9314 77.3507 35.8843 77.3276 35.8366C77.1259 35.4191 76.8754 34.9044 76.5874 34.4381C75.9926 33.4751 74.8202 32.0674 72.6946 32.0674C71.5293 32.0674 70.6313 32.6731 70.2239 32.9732C69.707 33.354 69.224 33.8272 68.8056 34.2852C67.959 35.2119 67.1152 36.3663 66.4418 37.4184C66.243 37.7291 65.9368 38.182 65.5327 38.7798C65.3584 39.0376 65.1659 39.3224 64.956 39.6343C64.2796 40.6392 63.465 41.8634 62.6273 43.1889C60.9813 45.7933 59.1374 48.9569 58.1081 51.7018C57.6736 52.8603 57.2067 54.2829 56.8193 55.4695C56.7019 55.829 56.5955 56.1549 56.5004 56.4442C51.2214 61.2372 48.4392 67.8725 49.4468 76.5782C49.3476 76.5943 49.251 76.6104 49.1575 76.6265C49.1072 76.6352 49.0558 76.644 49.0034 76.6529C48.0795 76.8106 46.8391 77.0223 45.8169 77.6781C44.5399 78.4973 43.9468 79.7218 43.5208 80.7868C43.0068 82.0718 42.2017 84.8062 41.5379 88.1758C41.5233 87.052 41.4341 85.7066 41.1931 84.5013C40.9468 83.27 40.421 81.794 39.8565 80.5477C39.5685 79.912 39.2448 79.2789 38.9041 78.7224C38.6005 78.2264 38.1499 77.5659 37.5597 77.0741C36.4287 76.1316 34.741 75.2188 32.3105 74.761C34.6606 44.3113 53.7517 20.3351 90.3449 22.1442C102.591 22.7496 112.572 26.4578 120.778 32.4967ZM39.598 75.6591C39.6492 73.7625 39.967 69.5387 40.8282 67.8164C41.7796 65.9136 44.593 58.8453 45.7646 55.9017L45.7654 55.8997C45.919 55.5137 46.0444 55.1988 46.1336 54.9759C46.9025 53.0536 51.2083 45.5185 52.746 43.9038C53.9763 42.6121 58.1796 38.4447 60.1274 36.5224C56.3598 38.1371 47.902 43.3195 44.2113 51.1314C39.598 60.8964 37.8295 70.2769 38.4446 72.6604C38.9367 74.5673 39.4186 75.4541 39.598 75.6591Z" fill="#E16508"/>
<path d="M129.116 34.9796C129.079 34.9391 129.039 34.8957 128.997 34.8498C128.564 34.3775 127.884 33.6362 127.112 33.0518C126.9 32.8913 126.663 32.7279 126.402 32.5735C125.176 31.6269 123.15 30.1207 122.933 30.0059C122.755 29.9115 122.813 29.6954 122.864 29.5991C125.051 27.9223 139.619 16.2877 141.707 14.1477C141.707 15.7212 137.764 21.238 136.495 23.0124L136.402 23.1437C135.265 24.7351 129.35 34.4506 129.116 34.9796Z" fill="#E16508"/>
<path d="M35.1402 100.312C35.9749 99.3756 36.7824 98.4507 37.4576 97.6439C37.8786 97.1409 38.2635 96.6653 38.5772 96.2512C38.8536 95.8864 39.1944 95.4153 39.4168 94.9705C39.6313 94.5416 39.8614 94.1072 40.0961 93.6645L40.1145 93.6297C40.3697 93.1485 40.6446 92.63 40.8613 92.1744L40.8817 92.1316C40.7046 93.4513 40.5653 94.813 40.4829 96.1804C40.3838 97.8264 40.2449 99.9962 40.0939 102.355L40.0936 102.359C39.951 104.587 39.7976 106.983 39.6566 109.267C39.6275 109.738 39.5988 110.207 39.5707 110.67C37.7869 107.342 36.3039 103.871 35.1402 100.312Z" fill="#E16508"/>
<path d="M53.3142 89.8059C53.0646 90.6276 52.8091 91.5925 52.5087 92.7268L52.506 92.7373C52.4649 92.8924 52.423 93.0507 52.3801 93.2122C51.9709 94.7547 51.8389 96.6676 51.8479 98.3794C51.8523 99.2159 51.89 99.9638 51.9346 100.538C51.9568 100.826 51.9803 101.063 52.001 101.24C52.0089 101.308 52.0157 101.361 52.0211 101.401C52.0298 101.419 52.0407 101.441 52.0541 101.466C52.1276 101.607 52.2387 101.787 52.3741 101.973C52.4878 102.129 52.5966 102.258 52.6861 102.352C52.849 102.387 53.0628 102.428 53.3255 102.473C53.9346 102.577 54.7 102.687 55.4816 102.791C56.2363 102.892 57.0775 102.995 57.7439 103.077C58.3392 103.15 58.7951 103.206 58.9251 103.228C60.3152 103.459 61.1287 104.488 61.4644 104.984C61.9006 105.629 62.216 106.395 62.3974 107.181C62.6361 108.215 62.3728 109.124 62.1588 109.662C61.9277 110.242 61.6083 110.749 61.3271 111.138C61.0375 111.538 60.727 111.895 60.4487 112.18C60.2318 112.402 59.855 112.769 59.4328 113.022C59.1733 113.178 58.9196 113.276 58.7099 113.34L59.2158 114.655C60.1304 114.633 60.945 114.626 61.5025 114.649C63.8739 114.744 66.284 115.847 67.052 116.199C67.1147 116.228 67.1664 116.251 67.2063 116.269C67.4463 116.376 67.6659 116.503 67.8663 116.645C67.8975 116.405 67.9292 116.167 67.9602 115.933C68.0108 115.552 68.0598 115.184 68.1026 114.841C68.2557 113.617 68.5281 111.377 68.7762 109.09C62.791 104.348 57.132 98.1657 53.592 90.4219C53.4978 90.2157 53.4052 90.0104 53.3142 89.8059Z" fill="#E16508"/>
<path d="M56.8598 114.737L56.3599 113.873L56.1055 113.466C56.0198 113.46 55.9383 113.454 55.8638 113.448L55.8628 113.448L55.7689 113.441C55.7297 113.438 55.6933 113.435 55.6595 113.433C55.5903 113.428 55.5318 113.424 55.4813 113.421C55.4133 113.417 55.3875 113.416 55.3895 113.416H50.7363C50.6739 113.483 50.6019 113.563 50.5169 113.661C50.4768 113.708 50.4376 113.753 50.3967 113.801C50.36 113.844 50.3219 113.889 50.2805 113.938C50.2438 113.981 50.2046 114.027 50.1637 114.074C50.1708 114.214 50.1835 114.385 50.2026 114.608C50.2728 114.641 50.3618 114.679 50.4757 114.723C50.5852 114.766 50.6788 114.799 50.8178 114.851C50.9146 114.886 51.0621 114.941 51.2141 115.006C51.2478 115.011 51.3235 115.019 51.4539 115.022C51.7549 115.028 52.1142 115.003 52.6448 114.962C53.1605 114.923 54.9565 114.817 56.8598 114.737Z" fill="#E16508"/>
<path d="M116.435 120.55C111.447 122.097 105.195 122.635 97.419 121.859C98.289 123.969 99.6725 125.421 101.605 126.411C104.757 128.025 109.14 126.949 112.677 125.027C114.837 123.853 115.821 122.221 116.435 120.55Z" fill="#E16508"/>
<path d="M30.5251 72.0471C21.8878 69.8942 3.69069 65.7422 0 66.3573C2.1529 65.6653 5.92048 65.204 6.92004 65.1271C7.9196 65.0502 32.2166 61.5902 32.5242 61.5133C32.6818 61.4739 32.4961 62.0806 32.2363 62.9299C31.989 63.738 31.6746 64.7656 31.5246 65.6653C31.2171 67.5107 30.9095 71.432 30.9095 71.7396C30.9095 71.9856 30.6532 72.0471 30.5251 72.0471Z" fill="#E16508"/>
<path d="M20.2055 29.5278C22.0935 30.0627 24.8473 33.4229 28.0335 37.3107C30.9223 40.8358 34.1667 44.7946 37.4435 47.4743C37.5593 47.5291 37.8174 47.5829 37.9224 47.3604C38.0538 47.0823 40.0065 43.6679 41.0726 42.1306C41.5924 41.3811 42.3156 40.5862 42.8843 39.9611C43.482 39.3041 43.9089 38.8348 43.7496 38.8031C43.5855 38.7705 39.1868 36.8016 34.9313 34.8968L34.9306 34.8965C31.1231 33.1922 27.4305 31.5394 26.9882 31.3706C26.0515 31.0133 22.4477 29.8215 20.2055 29.5278Z" fill="#E16508"/>
<path d="M111.007 22.1649C112.864 20.1202 115.466 17.2545 116.059 16.2584C116.166 17.004 115.78 18.3443 115.525 19.2294C115.419 19.5961 115.336 19.8846 115.32 20.0203C115.292 20.2512 114.984 21.7436 114.682 23.2016L114.682 23.2022L114.682 23.2029C114.378 24.6709 114.082 26.1037 114.087 26.1781C114.093 26.2541 113.798 26.1045 113.386 25.8951C112.994 25.6958 112.496 25.4425 112.047 25.2777C111.127 24.9398 109.52 24.3795 109.362 24.3465C109.235 24.3201 109.228 24.1969 109.24 24.1385C109.542 23.7787 110.205 23.0485 111.007 22.1649Z" fill="#E16508"/>
<path d="M136.818 48.5539C138.559 48.3906 150.184 47.0004 151.876 46.4925C151.79 47.5201 148.513 49.4427 147.459 50.061L147.381 50.1068C146.422 50.6698 141.295 54.5987 141.23 54.7402C141.197 54.8128 140.942 54.4142 140.586 53.8563C140.246 53.3253 139.815 52.65 139.394 52.099C138.532 50.969 137.009 49.0209 136.848 48.849C136.719 48.7115 136.774 48.595 136.818 48.5539Z" fill="#E16508"/>
<path d="M164.962 65.1023C157.342 65.7721 148.071 66.5871 146.873 66.2466C146.812 66.2755 146.715 66.3874 146.818 66.6037C146.946 66.8741 148.058 69.8059 148.68 71.4974C148.983 72.3221 149.261 73.2965 149.48 74.0626C149.71 74.8678 149.874 75.443 149.933 75.3728C149.978 75.3178 152.108 74.4482 154.754 73.3673C158.699 71.7562 163.792 69.6757 164.851 69.1235C165.418 68.8276 166.632 68.3518 168.033 67.8027L168.034 67.8021C171.001 66.6394 174.806 65.1482 175.087 64.3394C174.279 64.2832 169.98 64.6612 164.964 65.1021L164.962 65.1023Z" fill="#E16508"/>
<path d="M154.784 146.507C156.897 152.422 158.713 157.505 158.853 158.315C158.001 158.235 155.645 154.896 153.808 152.292C152.94 151.062 152.188 149.996 151.765 149.516C150.914 148.549 146.232 141.174 142.98 136.05C141.196 133.24 139.842 131.107 139.785 131.079C139.703 131.039 140.222 130.742 140.949 130.327C141.641 129.932 142.521 129.429 143.25 128.938C144.744 127.931 147.326 126.151 147.558 125.962C147.743 125.811 147.875 125.878 147.918 125.931C147.873 127.163 151.654 137.746 154.783 146.505L154.784 146.506L154.784 146.507Z" fill="#E16508"/>
<path d="M127.133 153.807L127.133 153.806C126.613 147.6 126.002 140.302 126.387 139.381C126.364 139.342 126.267 139.295 126.06 139.415C125.802 139.565 123.016 140.993 121.41 141.801C120.627 142.196 119.707 142.603 118.984 142.923C118.225 143.26 117.682 143.5 117.743 143.528C117.791 143.551 118.704 145.447 119.823 147.771L119.824 147.771C121.469 151.187 123.559 155.525 123.994 156.183C124.229 156.538 124.585 157.33 124.997 158.244C125.868 160.179 126.985 162.66 127.713 162.698C127.825 162.066 127.502 158.212 127.133 153.807Z" fill="#E16508"/>
<path d="M97.6687 167.929C96.1392 175.675 94.7752 182.582 94.42 183.15C93.7326 182.831 93.4201 178.896 93.2023 176.153C93.1116 175.01 93.0373 174.075 92.9592 173.693C92.8093 172.96 91.8981 164.007 91.1162 156.325L91.116 156.323L91.1159 156.321C90.512 150.388 89.9854 145.214 89.9465 145.173C89.8957 145.118 91.2935 145.218 92.8775 145.33L92.878 145.33L92.8791 145.33L92.8797 145.331L92.8805 145.331L92.8815 145.331C94.0879 145.416 95.4017 145.51 96.2655 145.549C98.0345 145.629 102.02 145.501 102.316 145.459C102.553 145.424 102.625 145.504 102.632 145.549C101.952 146.238 99.6692 157.8 97.6689 167.929L97.6687 167.929Z" fill="#E16508"/>
<path d="M71.3898 151.511C74.2186 147.7 77.4237 143.383 77.9646 143.226C77.9687 143.206 77.9391 143.158 77.7871 143.126C77.5972 143.086 75.1223 142.362 74.0489 141.983C73.5243 141.798 72.7324 141.502 72.0055 141.23C71.0518 140.874 70.21 140.559 70.2313 140.592C70.2501 140.621 69.64 143.603 69.0187 146.64C68.4031 149.649 67.7765 152.711 67.7395 153.01C67.7176 153.186 67.592 153.595 67.4387 154.095C67.0704 155.295 66.5421 157.016 66.9065 157.285C67.2314 157.113 69.197 154.465 71.3888 151.513L71.3893 151.512L71.3898 151.511Z" fill="#E16508"/>
<path d="M48.0491 151.71C42.8089 157.062 38.0051 161.967 37.5989 162.006C37.2756 161.57 39.5761 157.793 40.7698 155.833C41.1253 155.249 41.3828 154.826 41.4433 154.701C41.5762 154.427 44.9531 148.842 48.2686 143.358C51.5335 137.957 54.7389 132.655 54.7284 132.621C54.7165 132.581 55.4961 133.211 56.3794 133.925C57.0526 134.469 57.7859 135.061 58.2752 135.443C59.2763 136.225 61.6309 137.885 61.8165 137.997C61.965 138.087 61.981 138.144 61.9705 138.161C61.3751 138.102 54.3924 145.233 48.0491 151.71Z" fill="#E16508"/>
<path d="M171.156 97.1881C171.002 98.2902 170.694 100.51 170.694 100.571L177.691 100.725L171.156 97.1881Z" fill="#E16508"/>
<path d="M27.8373 110.493C29.6827 108.417 32.9428 104.08 33.0658 103.957C33.1445 103.879 34.2157 106.107 34.9112 107.34C35.6066 108.573 37.0641 110.185 37.0641 110.185L32.22 114.03L27.8373 110.493Z" fill="#E16508"/>
<path d="M20.8404 117.259L23.7622 120.104C19.2514 123.487 10.1836 130.299 9.99903 130.484C9.81449 130.669 17.1497 121.744 20.8404 117.259Z" fill="#E16508"/>
<path d="M158.901 94.9499C155.78 93.269 153.638 93.0433 152.665 92.1319C152.653 92.1308 152.624 92.1883 152.603 92.4267C152.577 92.7247 152.261 95.8348 152.076 97.6205C151.892 99.4061 151.596 101.708 151.631 101.636C151.667 101.564 157.445 100.7 157.811 100.655C158.178 100.609 158.387 95.685 158.901 94.9499Z" stroke="#242424" stroke-linejoin="round" mask="url(#path-1-inside-1_305_2)"/>
<path d="M94.9583 0C94.4807 2.44562 91.2901 10.1322 89.0137 15.6166C88.0299 17.9867 87.2168 19.9454 86.8672 20.8922C86.8849 21.0191 86.989 21.2634 87.2642 21.2251C87.6082 21.1773 91.2681 21.1464 93.3746 21.1639C94.4016 21.1724 95.5943 21.3239 96.5323 21.4431C97.5181 21.5684 98.2223 21.6578 98.1565 21.5079C98.0921 21.361 97.6533 18.2455 97.2037 15.0536L97.2037 15.0531L97.2034 15.0514C96.757 11.8819 96.3 8.63756 96.1885 8.1503C96.123 7.86383 96.0822 7.21968 96.0303 6.40106C95.905 4.42477 95.7153 1.43161 94.9583 0Z" stroke="#242424" stroke-linejoin="round" mask="url(#path-1-inside-1_305_2)"/>
<path d="M58.0474 20.3872C58.3951 16.3803 58.7752 12.0014 58.2052 10.0723C59.4179 11.0471 60.491 13.1811 61.2426 14.6757C61.5834 15.3533 61.8581 15.8994 62.0497 16.1466C62.3677 16.5567 63.6562 18.591 64.8574 20.4876L64.858 20.4884L64.8585 20.4893C65.9773 22.2556 67.0202 23.9021 67.1327 24.0055C67.2524 24.1155 66.6436 24.2943 65.7914 24.5447C64.9807 24.783 63.9496 25.086 63.1159 25.4558C61.4059 26.2145 58.462 27.5876 58.2052 27.7568C57.9998 27.8922 57.8074 27.7121 57.7369 27.6051C57.5416 26.2163 57.7853 23.4078 58.0474 20.3878L58.0474 20.3872Z" stroke="#242424" stroke-linejoin="round" mask="url(#path-1-inside-1_305_2)"/>
<path fill-rule="evenodd" clip-rule="evenodd" d="M136.487 129.597C127.267 139.603 112.68 145.32 90.3449 143.322C74.8855 142.356 61.8805 136.149 52.1055 127.009C53.9546 126.976 56.2018 126.897 58.2524 126.802C60.8768 126.68 63.4432 126.522 64.3609 126.377C65.5709 126.186 66.7083 125.666 67.6037 125.01C67.9065 124.788 68.2373 124.508 68.5507 124.172C68.7096 124.463 68.8954 124.756 69.1133 125.034C69.926 126.07 71.2509 126.964 73.0707 126.868C75.8539 126.722 77.3249 124.889 77.853 123.657C78.0154 123.278 78.1493 122.76 78.2415 122.38C78.3532 121.92 78.4738 121.357 78.5874 120.748C78.8102 119.552 79.0295 118.054 79.0747 116.741C79.0826 116.514 79.0991 116.224 79.1228 115.885C86.0566 119.638 91.9651 121.408 93.7283 121.408C93.9403 121.439 94.1513 121.468 94.3612 121.497C94.6615 122.51 95.0512 123.453 95.5438 124.324C96.6954 126.358 98.3227 127.839 100.343 128.874C102.609 130.035 105.137 130.144 107.432 129.779C109.74 129.411 112.02 128.534 113.999 127.459C118.044 125.26 119.111 121.61 119.72 119.307C121.263 118.608 122.659 117.793 123.919 116.876C124.099 117.489 124.302 118.109 124.528 118.738C125.495 121.421 126.383 123.481 127.335 125.02C126.031 127.095 124.869 128.792 124.022 129.943C124.24 129.967 126.492 129.183 128.971 127.092C130.128 128.197 131.404 128.75 132.828 128.987C133.005 129.017 133.236 129.062 133.511 129.116C134.257 129.263 135.324 129.473 136.487 129.597ZM73.518 130.035C75.1788 131.142 80.093 134.428 82.656 136.017C79.2985 134.736 72.8487 132.549 71.68 131.873C70.5113 131.196 66.8619 128.687 65.2472 127.508C65.7634 127.153 68.0041 126.359 68.3315 126.103C68.6934 126.359 69.321 127.19 69.3826 127.278C69.9208 128.047 71.442 128.651 73.518 130.035Z" stroke="#242424" stroke-linejoin="round" mask="url(#path-1-inside-1_305_2)"/>
<path d="M147.146 110.033C149.24 103.042 150.267 95.4154 150.546 87.6123C149.911 88.4895 149.058 89.1201 148.009 89.4406C146.573 89.8793 145.205 89.5608 144.704 89.444C144.687 89.4401 144.671 89.4363 144.656 89.4329C144.513 89.4 144.374 89.3593 144.239 89.3135C144.032 91.7683 143.65 94.0659 143.014 95.881C142.561 97.175 142.038 98.7838 141.451 100.588L141.45 100.59C140.085 104.789 138.377 110.045 136.401 114.848C136.668 116.029 136.936 117.063 137.16 117.833C137.32 118.32 137.715 119.12 138.302 119.741C138.866 120.338 139.419 120.592 140.022 120.569C140.614 120.547 141.171 120.387 141.692 120.131C140.451 119.435 139.819 118.186 139.572 117.237C139.239 115.96 139.346 114.55 139.746 113.418C140.131 112.326 140.899 111.624 141.58 111.199C142.249 110.782 142.971 110.541 143.582 110.391C144.804 110.092 146.119 110.033 147.047 110.033C147.08 110.033 147.113 110.033 147.146 110.033Z" stroke="#242424" stroke-linejoin="round" mask="url(#path-1-inside-1_305_2)"/>
<path d="M135.436 109.486C135.987 108.134 136.493 106.771 136.94 105.415C138.562 100.488 140.03 94.3581 141.216 88.6408C140.871 89.0086 140.465 89.4593 139.988 90.0095C137.543 92.8312 135.637 98.6062 135.197 104.251C135.078 105.781 135.197 107.624 135.436 109.486Z" stroke="#242424" stroke-linejoin="round" mask="url(#path-1-inside-1_305_2)"/>
<path d="M144.174 77.1225C144.078 75.8797 143.968 74.7787 143.86 73.8907C143.73 74.7818 143.564 75.8492 143.367 77.0538C142.106 76.9832 140.59 77.0743 139.191 77.6238C137.662 78.2245 135.667 79.4244 133.67 81.0559C132.579 65.8819 128.656 57.3745 122.612 52.6048C122.715 52.4699 122.799 52.3548 122.864 52.2619L123.012 52.0508C123.665 51.1182 125.206 48.9184 126.658 46.7987C127.444 45.6498 128.215 44.51 128.808 43.6021C129.102 43.1505 129.366 42.7366 129.569 42.3989C129.67 42.2316 129.769 42.0607 129.854 41.901L129.857 41.8964C129.91 41.7975 130.053 41.5288 130.154 41.2127C138.772 51.1454 144.874 64.2953 149.453 79.0972C148.759 78.5633 148.083 78.2341 147.767 78.08L147.766 78.0793C147.728 78.061 147.696 78.0453 147.669 78.0319C146.824 77.6095 145.493 77.2727 144.174 77.1225Z" stroke="#242424" stroke-linejoin="round" mask="url(#path-1-inside-1_305_2)"/>
<path fill-rule="evenodd" clip-rule="evenodd" d="M120.778 32.4967C120.047 32.8887 119.432 33.3627 118.988 33.7291C118.175 34.4003 117.419 35.1663 116.943 35.6482C116.859 35.7341 116.783 35.811 116.717 35.8767C116.462 36.1319 116.058 36.5957 115.581 37.1634C115.387 36.8257 115.13 36.5036 114.8 36.2082C113.56 35.0978 112.058 35.0511 110.828 35.5325C110.727 35.152 110.551 34.6631 110.239 34.226C109.871 33.7112 109.122 32.8514 107.885 32.2878C106.576 31.6907 104.958 31.5374 103.139 32.1241C101.323 32.7098 99.9923 33.8178 99.2953 35.3552C98.6523 36.7737 98.7148 38.2006 98.8708 39.1884C99.0243 40.1603 99.4943 41.7737 99.9328 43.1274C100.342 44.3902 100.865 45.8676 101.268 46.6572C99.2767 46.5752 97.2185 46.5415 95.1002 46.5277C95.092 46.3657 95.0836 46.2035 95.0752 46.0419C94.9543 43.7252 94.7948 41.158 94.651 40.2473C94.4977 39.2761 94.088 37.8817 93.7163 36.7665C93.5217 36.1827 93.3161 35.6115 93.1256 35.1339C92.9844 34.78 92.7257 34.1426 92.4009 33.6879C92.3992 33.6856 92.3958 33.6801 92.3905 33.6718L92.3901 33.6713C92.2852 33.507 91.4846 32.253 89.976 31.8274C88.2354 31.3365 86.6182 32.1103 85.3245 33.0904C84.3504 33.8283 83.4335 34.9473 82.6781 35.9825C81.8827 37.0723 81.1018 38.3017 80.4205 39.4405C80.2004 39.8085 79.9883 40.1709 79.7871 40.5207C79.453 39.8985 79.1293 39.2921 78.8281 38.7279L78.8272 38.7261C78.5149 38.1411 78.2268 37.6015 77.9766 37.1369C77.769 36.7514 77.5917 36.3837 77.4003 35.9872L77.396 35.9782C77.3734 35.9314 77.3507 35.8843 77.3276 35.8366C77.1259 35.4191 76.8754 34.9044 76.5874 34.4381C75.9926 33.4751 74.8202 32.0674 72.6946 32.0674C71.5293 32.0674 70.6313 32.6731 70.2239 32.9732C69.707 33.354 69.224 33.8272 68.8056 34.2852C67.959 35.2119 67.1152 36.3663 66.4418 37.4184C66.243 37.7291 65.9368 38.182 65.5327 38.7798C65.3584 39.0376 65.1659 39.3224 64.956 39.6343C64.2796 40.6392 63.465 41.8634 62.6273 43.1889C60.9813 45.7933 59.1374 48.9569 58.1081 51.7018C57.6736 52.8603 57.2067 54.2829 56.8193 55.4695C56.7019 55.829 56.5955 56.1549 56.5004 56.4442C51.2214 61.2372 48.4392 67.8725 49.4468 76.5782C49.3476 76.5943 49.251 76.6104 49.1575 76.6265C49.1072 76.6352 49.0558 76.644 49.0034 76.6529C48.0795 76.8106 46.8391 77.0223 45.8169 77.6781C44.5399 78.4973 43.9468 79.7218 43.5208 80.7868C43.0068 82.0718 42.2017 84.8062 41.5379 88.1758C41.5233 87.052 41.4341 85.7066 41.1931 84.5013C40.9468 83.27 40.421 81.794 39.8565 80.5477C39.5685 79.912 39.2448 79.2789 38.9041 78.7224C38.6005 78.2264 38.1499 77.5659 37.5597 77.0741C36.4287 76.1316 34.741 75.2188 32.3105 74.761C34.6606 44.3113 53.7517 20.3351 90.3449 22.1442C102.591 22.7496 112.572 26.4578 120.778 32.4967ZM39.598 75.6591C39.6492 73.7625 39.967 69.5387 40.8282 67.8164C41.7796 65.9136 44.593 58.8453 45.7646 55.9017L45.7654 55.8997C45.919 55.5137 46.0444 55.1988 46.1336 54.9759C46.9025 53.0536 51.2083 45.5185 52.746 43.9038C53.9763 42.6121 58.1796 38.4447 60.1274 36.5224C56.3598 38.1371 47.902 43.3195 44.2113 51.1314C39.598 60.8964 37.8295 70.2769 38.4446 72.6604C38.9367 74.5673 39.4186 75.4541 39.598 75.6591Z" stroke="#242424" stroke-linejoin="round" mask="url(#path-1-inside-1_305_2)"/>
<path d="M129.116 34.9796C129.079 34.9391 129.039 34.8957 128.997 34.8498C128.564 34.3775 127.884 33.6362 127.112 33.0518C126.9 32.8913 126.663 32.7279 126.402 32.5735C125.176 31.6269 123.15 30.1207 122.933 30.0059C122.755 29.9115 122.813 29.6954 122.864 29.5991C125.051 27.9223 139.619 16.2877 141.707 14.1477C141.707 15.7212 137.764 21.238 136.495 23.0124L136.402 23.1437C135.265 24.7351 129.35 34.4506 129.116 34.9796Z" stroke="#242424" stroke-linejoin="round" mask="url(#path-1-inside-1_305_2)"/>
<path d="M35.1402 100.312C35.9749 99.3756 36.7824 98.4507 37.4576 97.6439C37.8786 97.1409 38.2635 96.6653 38.5772 96.2512C38.8536 95.8864 39.1944 95.4153 39.4168 94.9705C39.6313 94.5416 39.8614 94.1072 40.0961 93.6645L40.1145 93.6297C40.3697 93.1485 40.6446 92.63 40.8613 92.1744L40.8817 92.1316C40.7046 93.4513 40.5653 94.813 40.4829 96.1804C40.3838 97.8264 40.2449 99.9962 40.0939 102.355L40.0936 102.359C39.951 104.587 39.7976 106.983 39.6566 109.267C39.6275 109.738 39.5988 110.207 39.5707 110.67C37.7869 107.342 36.3039 103.871 35.1402 100.312Z" stroke="#242424" stroke-linejoin="round" mask="url(#path-1-inside-1_305_2)"/>
<path d="M53.3142 89.8059C53.0646 90.6276 52.8091 91.5925 52.5087 92.7268L52.506 92.7373C52.4649 92.8924 52.423 93.0507 52.3801 93.2122C51.9709 94.7547 51.8389 96.6676 51.8479 98.3794C51.8523 99.2159 51.89 99.9638 51.9346 100.538C51.9568 100.826 51.9803 101.063 52.001 101.24C52.0089 101.308 52.0157 101.361 52.0211 101.401C52.0298 101.419 52.0407 101.441 52.0541 101.466C52.1276 101.607 52.2387 101.787 52.3741 101.973C52.4878 102.129 52.5966 102.258 52.6861 102.352C52.849 102.387 53.0628 102.428 53.3255 102.473C53.9346 102.577 54.7 102.687 55.4816 102.791C56.2363 102.892 57.0775 102.995 57.7439 103.077C58.3392 103.15 58.7951 103.206 58.9251 103.228C60.3152 103.459 61.1287 104.488 61.4644 104.984C61.9006 105.629 62.216 106.395 62.3974 107.181C62.6361 108.215 62.3728 109.124 62.1588 109.662C61.9277 110.242 61.6083 110.749 61.3271 111.138C61.0375 111.538 60.727 111.895 60.4487 112.18C60.2318 112.402 59.855 112.769 59.4328 113.022C59.1733 113.178 58.9196 113.276 58.7099 113.34L59.2158 114.655C60.1304 114.633 60.945 114.626 61.5025 114.649C63.8739 114.744 66.284 115.847 67.052 116.199C67.1147 116.228 67.1664 116.251 67.2063 116.269C67.4463 116.376 67.6659 116.503 67.8663 116.645C67.8975 116.405 67.9292 116.167 67.9602 115.933C68.0108 115.552 68.0598 115.184 68.1026 114.841C68.2557 113.617 68.5281 111.377 68.7762 109.09C62.791 104.348 57.132 98.1657 53.592 90.4219C53.4978 90.2157 53.4052 90.0104 53.3142 89.8059Z" stroke="#242424" stroke-linejoin="round" mask="url(#path-1-inside-1_305_2)"/>
<path d="M56.8598 114.737L56.3599 113.873L56.1055 113.466C56.0198 113.46 55.9383 113.454 55.8638 113.448L55.8628 113.448L55.7689 113.441C55.7297 113.438 55.6933 113.435 55.6595 113.433C55.5903 113.428 55.5318 113.424 55.4813 113.421C55.4133 113.417 55.3875 113.416 55.3895 113.416H50.7363C50.6739 113.483 50.6019 113.563 50.5169 113.661C50.4768 113.708 50.4376 113.753 50.3967 113.801C50.36 113.844 50.3219 113.889 50.2805 113.938C50.2438 113.981 50.2046 114.027 50.1637 114.074C50.1708 114.214 50.1835 114.385 50.2026 114.608C50.2728 114.641 50.3618 114.679 50.4757 114.723C50.5852 114.766 50.6788 114.799 50.8178 114.851C50.9146 114.886 51.0621 114.941 51.2141 115.006C51.2478 115.011 51.3235 115.019 51.4539 115.022C51.7549 115.028 52.1142 115.003 52.6448 114.962C53.1605 114.923 54.9565 114.817 56.8598 114.737Z" stroke="#242424" stroke-linejoin="round" mask="url(#path-1-inside-1_305_2)"/>
<path d="M116.435 120.55C111.447 122.097 105.195 122.635 97.419 121.859C98.289 123.969 99.6725 125.421 101.605 126.411C104.757 128.025 109.14 126.949 112.677 125.027C114.837 123.853 115.821 122.221 116.435 120.55Z" stroke="#242424" stroke-linejoin="round" mask="url(#path-1-inside-1_305_2)"/>
<path d="M30.5251 72.0471C21.8878 69.8942 3.69069 65.7422 0 66.3573C2.1529 65.6653 5.92048 65.204 6.92004 65.1271C7.9196 65.0502 32.2166 61.5902 32.5242 61.5133C32.6818 61.4739 32.4961 62.0806 32.2363 62.9299C31.989 63.738 31.6746 64.7656 31.5246 65.6653C31.2171 67.5107 30.9095 71.432 30.9095 71.7396C30.9095 71.9856 30.6532 72.0471 30.5251 72.0471Z" stroke="#242424" stroke-linejoin="round" mask="url(#path-1-inside-1_305_2)"/>
<path d="M20.2055 29.5278C22.0935 30.0627 24.8473 33.4229 28.0335 37.3107C30.9223 40.8358 34.1667 44.7946 37.4435 47.4743C37.5593 47.5291 37.8174 47.5829 37.9224 47.3604C38.0538 47.0823 40.0065 43.6679 41.0726 42.1306C41.5924 41.3811 42.3156 40.5862 42.8843 39.9611C43.482 39.3041 43.9089 38.8348 43.7496 38.8031C43.5855 38.7705 39.1868 36.8016 34.9313 34.8968L34.9306 34.8965C31.1231 33.1922 27.4305 31.5394 26.9882 31.3706C26.0515 31.0133 22.4477 29.8215 20.2055 29.5278Z" stroke="#242424" stroke-linejoin="round" mask="url(#path-1-inside-1_305_2)"/>
<path d="M111.007 22.1649C112.864 20.1202 115.466 17.2545 116.059 16.2584C116.166 17.004 115.78 18.3443 115.525 19.2294C115.419 19.5961 115.336 19.8846 115.32 20.0203C115.292 20.2512 114.984 21.7436 114.682 23.2016L114.682 23.2022L114.682 23.2029C114.378 24.6709 114.082 26.1037 114.087 26.1781C114.093 26.2541 113.798 26.1045 113.386 25.8951C112.994 25.6958 112.496 25.4425 112.047 25.2777C111.127 24.9398 109.52 24.3795 109.362 24.3465C109.235 24.3201 109.228 24.1969 109.24 24.1385C109.542 23.7787 110.205 23.0485 111.007 22.1649Z" stroke="#242424" stroke-linejoin="round" mask="url(#path-1-inside-1_305_2)"/>
<path d="M136.818 48.5539C138.559 48.3906 150.184 47.0004 151.876 46.4925C151.79 47.5201 148.513 49.4427 147.459 50.061L147.381 50.1068C146.422 50.6698 141.295 54.5987 141.23 54.7402C141.197 54.8128 140.942 54.4142 140.586 53.8563C140.246 53.3253 139.815 52.65 139.394 52.099C138.532 50.969 137.009 49.0209 136.848 48.849C136.719 48.7115 136.774 48.595 136.818 48.5539Z" stroke="#242424" stroke-linejoin="round" mask="url(#path-1-inside-1_305_2)"/>
<path d="M164.962 65.1023C157.342 65.7721 148.071 66.5871 146.873 66.2466C146.812 66.2755 146.715 66.3874 146.818 66.6037C146.946 66.8741 148.058 69.8059 148.68 71.4974C148.983 72.3221 149.261 73.2965 149.48 74.0626C149.71 74.8678 149.874 75.443 149.933 75.3728C149.978 75.3178 152.108 74.4482 154.754 73.3673C158.699 71.7562 163.792 69.6757 164.851 69.1235C165.418 68.8276 166.632 68.3518 168.033 67.8027L168.034 67.8021C171.001 66.6394 174.806 65.1482 175.087 64.3394C174.279 64.2832 169.98 64.6612 164.964 65.1021L164.962 65.1023Z" stroke="#242424" stroke-linejoin="round" mask="url(#path-1-inside-1_305_2)"/>
<path d="M154.784 146.507C156.897 152.422 158.713 157.505 158.853 158.315C158.001 158.235 155.645 154.896 153.808 152.292C152.94 151.062 152.188 149.996 151.765 149.516C150.914 148.549 146.232 141.174 142.98 136.05C141.196 133.24 139.842 131.107 139.785 131.079C139.703 131.039 140.222 130.742 140.949 130.327C141.641 129.932 142.521 129.429 143.25 128.938C144.744 127.931 147.326 126.151 147.558 125.962C147.743 125.811 147.875 125.878 147.918 125.931C147.873 127.163 151.654 137.746 154.783 146.505L154.784 146.506L154.784 146.507Z" stroke="#242424" stroke-linejoin="round" mask="url(#path-1-inside-1_305_2)"/>
<path d="M127.133 153.807L127.133 153.806C126.613 147.6 126.002 140.302 126.387 139.381C126.364 139.342 126.267 139.295 126.06 139.415C125.802 139.565 123.016 140.993 121.41 141.801C120.627 142.196 119.707 142.603 118.984 142.923C118.225 143.26 117.682 143.5 117.743 143.528C117.791 143.551 118.704 145.447 119.823 147.771L119.824 147.771C121.469 151.187 123.559 155.525 123.994 156.183C124.229 156.538 124.585 157.33 124.997 158.244C125.868 160.179 126.985 162.66 127.713 162.698C127.825 162.066 127.502 158.212 127.133 153.807Z" stroke="#242424" stroke-linejoin="round" mask="url(#path-1-inside-1_305_2)"/>
<path d="M97.6687 167.929C96.1392 175.675 94.7752 182.582 94.42 183.15C93.7326 182.831 93.4201 178.896 93.2023 176.153C93.1116 175.01 93.0373 174.075 92.9592 173.693C92.8093 172.96 91.8981 164.007 91.1162 156.325L91.116 156.323L91.1159 156.321C90.512 150.388 89.9854 145.214 89.9465 145.173C89.8957 145.118 91.2935 145.218 92.8775 145.33L92.878 145.33L92.8791 145.33L92.8797 145.331L92.8805 145.331L92.8815 145.331C94.0879 145.416 95.4017 145.51 96.2655 145.549C98.0345 145.629 102.02 145.501 102.316 145.459C102.553 145.424 102.625 145.504 102.632 145.549C101.952 146.238 99.6692 157.8 97.6689 167.929L97.6687 167.929Z" stroke="#242424" stroke-linejoin="round" mask="url(#path-1-inside-1_305_2)"/>
<path d="M71.3898 151.511C74.2186 147.7 77.4237 143.383 77.9646 143.226C77.9687 143.206 77.9391 143.158 77.7871 143.126C77.5972 143.086 75.1223 142.362 74.0489 141.983C73.5243 141.798 72.7324 141.502 72.0055 141.23C71.0518 140.874 70.21 140.559 70.2313 140.592C70.2501 140.621 69.64 143.603 69.0187 146.64C68.4031 149.649 67.7765 152.711 67.7395 153.01C67.7176 153.186 67.592 153.595 67.4387 154.095C67.0704 155.295 66.5421 157.016 66.9065 157.285C67.2314 157.113 69.197 154.465 71.3888 151.513L71.3893 151.512L71.3898 151.511Z" stroke="#242424" stroke-linejoin="round" mask="url(#path-1-inside-1_305_2)"/>
<path d="M48.0491 151.71C42.8089 157.062 38.0051 161.967 37.5989 162.006C37.2756 161.57 39.5761 157.793 40.7698 155.833C41.1253 155.249 41.3828 154.826 41.4433 154.701C41.5762 154.427 44.9531 148.842 48.2686 143.358C51.5335 137.957 54.7389 132.655 54.7284 132.621C54.7165 132.581 55.4961 133.211 56.3794 133.925C57.0526 134.469 57.7859 135.061 58.2752 135.443C59.2763 136.225 61.6309 137.885 61.8165 137.997C61.965 138.087 61.981 138.144 61.9705 138.161C61.3751 138.102 54.3924 145.233 48.0491 151.71Z" stroke="#242424" stroke-linejoin="round" mask="url(#path-1-inside-1_305_2)"/>
<path d="M171.156 97.1881C171.002 98.2902 170.694 100.51 170.694 100.571L177.691 100.725L171.156 97.1881Z" stroke="#242424" stroke-linejoin="round" mask="url(#path-1-inside-1_305_2)"/>
<path d="M27.8373 110.493C29.6827 108.417 32.9428 104.08 33.0658 103.957C33.1445 103.879 34.2157 106.107 34.9112 107.34C35.6066 108.573 37.0641 110.185 37.0641 110.185L32.22 114.03L27.8373 110.493Z" stroke="#242424" stroke-linejoin="round" mask="url(#path-1-inside-1_305_2)"/>
<path d="M20.8404 117.259L23.7622 120.104C19.2514 123.487 10.1836 130.299 9.99903 130.484C9.81449 130.669 17.1497 121.744 20.8404 117.259Z" stroke="#242424" stroke-linejoin="round" mask="url(#path-1-inside-1_305_2)"/>
<path fill-rule="evenodd" clip-rule="evenodd" d="M3.41729 95.7318C2.54418 103.153 2.18706 110.259 2.18706 117.722C2.18706 119.875 2.5715 125.104 3.80172 125.642C5.03195 126.18 6.26218 125.949 6.56974 124.027C7.37827 118.974 8.07018 113.846 9.25226 108.868C9.55509 107.592 9.93591 105.989 11.1062 106.112C12.4353 106.252 13.5735 107.092 14.405 107.705C14.4874 107.766 14.5668 107.825 14.6431 107.88C15.1674 108.262 17.7602 111.184 19.8935 113.589C22.3815 116.393 25.3892 118.988 27.5605 122.028C27.945 122.566 30.6361 125.104 32.4814 124.873C34.3268 124.642 34.865 123.719 35.2495 122.874C35.6339 122.028 35.7108 119.567 34.0961 117.876C31.9219 115.598 25.2415 112.919 25.4076 109.264C25.4845 107.573 26.2534 105.727 27.5605 104.42C30.9279 101.053 38.1652 95.3505 38.8266 90.0595C38.9035 89.4444 38.9813 86.9274 38.5969 85.0051C38.2124 83.0829 36.9887 80.1805 35.8399 79.0318C34.921 78.1128 33.083 76.9641 30.0964 76.9641C26.6395 76.9641 24.2447 77.2358 20.6769 77.4236C19.216 77.5005 16.7027 77.6533 14.7036 77.6533C13.0149 77.6533 10.7979 77.8831 8.99294 79.4872C5.47619 83.1919 3.98082 90.9417 3.41729 95.7318ZM14.4124 99.1918C17.6903 103.744 21.1364 102.388 23.4854 100.268C26.6379 97.4234 29.2521 94.3478 30.0979 92.7331C32.1351 88.8438 31.6412 83.199 25.9459 83.0451C23.6324 82.9825 21.3697 83.0217 20.3984 83.0385C19.3177 83.0572 17.8229 83.1455 17.1036 84.0446C14.8381 86.8764 11.8963 95.6972 14.4124 99.1918Z" fill="#1A1A1A"/>
<path d="M23.7329 91.7832C23.2929 92.9334 22.0682 93.5338 20.9973 93.1242C19.9264 92.7146 19.4149 91.4501 19.8548 90.2999C20.2947 89.1497 21.5195 88.5493 22.5904 88.9589C23.6613 89.3685 24.1728 90.6329 23.7329 91.7832Z" fill="#1A1A1A"/>
<path d="M46.0909 81.8148C46.8598 79.8926 47.4749 79.4162 49.7047 79.0318C54.3785 78.226 61.9675 77.5855 66.3897 79.3543C67.1585 79.6619 68.1581 80.8152 68.235 82.2761C68.3119 83.737 66.6972 84.429 66.0052 84.8135C65.3132 85.1979 63.0065 85.0441 62.2376 84.8135C59.3602 83.9503 55.5791 83.4683 52.8571 85.0441C51.3962 85.8899 50.3792 88.6633 49.7047 92.5024C49.1651 95.5733 48.0164 102.695 51.6923 104.763C52.5021 105.219 58.0087 105.881 58.4701 105.958C58.9314 106.035 59.4696 106.804 59.7003 107.803C59.9309 108.803 58.3932 110.418 58.0087 110.648C57.6243 110.879 55.9327 110.648 55.3945 110.648H50.166C49.3202 110.648 48.5513 111.725 47.9362 112.417C47.3211 113.109 47.3211 113.493 47.4749 115.185C47.6287 116.876 49.474 117.261 50.166 117.568C50.858 117.876 51.8576 117.799 52.8571 117.722C53.8567 117.645 59.4696 117.338 61.3918 117.415C63.3141 117.491 65.3901 118.491 66.0821 118.799C66.7741 119.106 67.3123 120.336 67.0817 121.336C66.851 122.335 65.3901 123.412 63.9292 123.643C62.4683 123.873 54.3949 124.258 50.4736 124.258C46.5522 124.258 45.7833 123.643 44.1686 122.874C42.554 122.105 42.0157 121.105 41.9388 119.183C41.862 117.261 42.8615 102.729 43.246 96.3469C43.6304 89.9651 45.322 83.737 46.0909 81.8148Z" fill="#1A1A1A"/>
<path d="M70.8492 115.185C71.1568 112.724 72.0025 105.727 72.0794 102.882C72.1563 100.038 73.2482 91.7181 73.3097 91.0415C73.3866 90.1957 74.3093 82.8912 74.463 82.5837C74.6168 82.2761 76.0777 81.5841 78.6151 80.8152C81.1524 80.0463 87.8418 79.8157 90.1485 80.0463C92.4551 80.277 94.6849 81.5072 95.6076 82.5837C96.5303 83.6601 96.5303 85.3517 96.2227 86.3513C95.9151 87.3508 94.8387 88.2735 93.4547 88.4273C92.0707 88.5811 90.7636 88.0428 89.9178 87.6584C89.072 87.2739 86.5346 87.1202 84.6893 87.197C82.844 87.2739 81.9213 88.8886 81.6906 89.2731C81.46 89.6575 81.3831 90.8108 81.6906 91.8873C81.9982 92.9637 83.6129 93.6558 85.612 93.6558C87.6111 93.6558 89.6102 93.9633 90.5329 94.3478C91.4556 94.7322 91.5325 95.7318 91.5325 96.6544C91.5325 97.5771 90.1485 98.5767 89.6102 98.8073C89.072 99.038 87.0729 99.2687 85.2275 99.2687C83.3822 99.2687 81.3831 99.1918 80.768 99.2687C80.1528 99.3456 79.9222 99.8069 79.3839 100.576C78.8457 101.345 77.923 104.574 77.5386 106.035C77.1542 107.496 76.3853 114.416 76.3084 116.646C76.2315 118.875 75.5395 122.028 75.3088 122.566C75.0781 123.104 74.3861 124.027 72.9252 124.104C71.4644 124.181 70.8492 122.797 70.4648 121.567C70.0803 120.336 70.5417 117.645 70.8492 115.185Z" fill="#1A1A1A"/>
<path d="M99.3752 86.4282C98.6063 88.2735 98.2218 91.9642 97.7605 95.8855C97.2992 99.8069 96.9609 103.528 96.8378 105.497C96.6841 107.957 95.9921 112.109 96.3765 117.03C96.7609 121.951 98.4525 124.796 101.605 126.411C104.757 128.025 109.14 126.949 112.677 125.027C116.214 123.104 116.598 119.952 117.367 117.415C118.136 114.877 119.52 107.88 119.751 106.419C119.982 104.958 122.442 93.1175 122.596 91.9642C122.75 90.8108 123.442 87.5815 121.673 87.197C119.905 86.8126 118.751 89.4268 118.29 90.6571C117.829 91.8873 116.752 98.6536 116.368 100.883C115.983 103.113 116.06 106.112 115.906 107.111C115.753 108.111 115.061 109.649 114.445 112.109C113.83 114.57 111.447 118.875 109.601 120.183C107.756 121.49 105.68 120.336 104.527 119.952C103.373 119.567 104.065 116.261 104.142 113.339C104.219 110.418 105.526 107.111 105.911 105.881C106.295 104.651 108.986 97.7309 109.601 96.6544C110.217 95.578 111.601 89.0424 111.985 87.197C112.369 85.3517 111.139 82.6606 109.294 81.5072C107.449 80.3539 105.296 80.6614 103.143 81.5072C100.99 82.353 100.144 84.5828 99.3752 86.4282Z" fill="#1A1A1A"/>
<path d="M111.216 109.187C111.216 110.249 110.39 111.11 109.371 111.11C108.352 111.11 107.525 110.249 107.525 109.187C107.525 108.126 108.352 107.265 109.371 107.265C110.39 107.265 111.216 108.126 111.216 109.187Z" fill="#1A1A1A"/>
<path d="M125.902 101.499C126.517 97.5003 128.055 93.7327 129.054 91.1953C129.157 90.9903 130.162 88.8308 131.592 87.0433C134.36 83.5833 138.051 81.0459 140.203 80.2001C142.356 79.3544 145.509 80.0464 146.431 80.5077C147.354 80.969 149.584 81.9686 148.892 84.6597C148.2 87.3509 146.278 86.9664 145.278 86.7357C144.279 86.5051 142.279 84.7366 141.895 84.6597C141.511 84.5829 140.626 85.0472 137.897 88.1966C134.898 91.6566 132.899 98.1154 132.438 104.036C132.069 108.772 133.668 115.749 134.514 118.645C135.026 120.259 136.866 123.458 140.127 123.335C144.202 123.181 146.585 119.337 146.893 119.029C147.2 118.722 147.047 118.26 146.739 117.876C146.431 117.491 145.047 118.03 143.587 117.876C142.126 117.722 141.895 115.646 142.356 114.339C142.818 113.032 145.355 112.801 147.047 112.801C148.738 112.801 150.43 112.724 151.814 112.494C153.198 112.263 154.735 111.494 155.274 111.11C155.812 110.725 156.196 111.033 156.196 111.417C156.196 111.802 154.351 114.262 154.043 114.877C153.736 115.492 154.197 117.415 154.428 118.414C154.659 119.414 154.812 121.182 154.735 121.951C154.659 122.72 154.428 124.258 152.198 124.258C149.968 124.258 149.353 121.259 149.276 121.028C149.215 120.844 149.199 119.516 149.199 118.875C148.61 120.029 146.708 122.905 143.817 125.18C140.203 128.025 135.59 126.641 133.283 126.257C130.977 125.872 129.516 124.412 127.132 117.799C124.749 111.187 125.287 105.497 125.902 101.499Z" fill="#1A1A1A"/>
<path d="M159.58 111.033C159.764 108.818 160.81 95.5011 161.04 93.7326C161.271 91.9642 161.809 88.1966 162.424 86.4281C163.04 84.6597 163.655 83.5064 164.27 82.5068C164.885 81.5072 167.038 81.2766 167.576 81.2766C168.114 81.2766 172.881 81.5072 173.804 81.5072C174.727 81.5072 186.029 82.2761 187.106 82.5068C188.182 82.7375 189.643 82.4299 190.335 85.3517C191.027 88.2735 188.49 88.581 187.721 88.8117C186.952 89.0424 185.03 88.4273 184.03 88.0428C183.031 87.6584 179.648 87.3508 177.956 87.3508C176.264 87.3508 173.496 87.5815 172.497 87.7353C171.497 87.889 170.728 88.581 170.267 89.5806C169.806 90.5802 168.883 95.1935 168.652 97.0389C168.422 98.8842 168.191 102.959 168.191 105.804C168.191 108.649 169.498 109.187 171.113 109.649C172.728 110.11 175.496 109.802 178.725 110.264C181.954 110.725 182.031 112.263 182.262 113.109C182.493 113.955 182.031 114.954 180.724 115.8C179.417 116.646 176.956 116.492 175.803 116.492C174.65 116.492 170.575 115.8 170.036 115.8C169.498 115.8 168.191 115.954 167.807 117.953C167.422 119.952 169.883 121.105 172.036 121.643C174.188 122.182 183.338 122.797 184.876 122.72C186.414 122.643 187.26 123.412 187.49 123.95C187.721 124.488 188.336 126.103 187.49 127.103C186.645 128.102 184.03 127.871 178.725 127.718C173.42 127.564 163.962 126.641 161.963 126.334C159.964 126.026 159.58 125.334 158.888 123.412C158.196 121.49 159.349 113.801 159.58 111.033Z" fill="#1A1A1A"/>
<path d="M57.9318 64.5147C57.5474 63.592 58.0856 60.9778 58.5469 58.9786C58.9058 58.1329 59.8803 54.8593 60.6998 52.6737C62.5452 47.7528 67.543 40.8328 68.7732 38.9106C70.0035 36.9883 71.7719 34.8354 72.6946 34.8354C74.0786 34.8354 74.463 36.4501 75.5395 38.4492C76.6159 40.4483 78.9226 44.831 79.5377 45.7537C80.1528 46.6764 80.2297 45.523 80.3835 45.2155C80.5373 44.9079 84.4586 37.2189 86.996 35.2967C89.12 33.6877 89.764 34.7585 90.1485 35.2967C90.5329 35.835 91.6862 39.2181 91.9169 40.679C92.1476 42.1399 92.532 50.2133 92.532 51.7511C92.532 53.2888 92.4551 69.4356 90.456 71.5885C88.4569 73.7414 87.0729 71.9729 86.2271 70.6658C85.3813 69.3587 85.3813 64.5147 85.3813 62.9769C85.3813 61.4391 85.1506 49.7519 85.0738 48.8293C84.9969 47.9066 84.9969 46.6764 84.8431 46.3688C84.6893 46.0613 80.076 53.1351 79.5377 53.9808C79.1071 54.6575 78.1793 55.2367 77.7693 55.4417C76.0008 55.9031 75.155 54.1346 74.463 53.1351C73.771 52.1355 72.2332 47.8297 71.9257 46.6764C71.6181 45.523 71.3106 45.4461 71.003 45.523C70.6955 45.5999 69.6959 47.8297 69.2346 48.8293C68.7732 49.8288 64.4674 59.2862 64.0061 60.3627C63.5447 61.4391 62.0839 64.5147 61.0843 65.1298C60.0847 65.7449 58.3163 65.4374 57.9318 64.5147Z" fill="#1A1A1A"/>
<path d="M108.217 39.6794C107.987 40.5252 107.91 41.2941 107.987 43.1394C108.013 43.7592 108.193 44.8845 108.448 45.523C108.756 46.2919 109.371 47.4451 109.832 47.2914C110.293 47.1377 111.524 46.1381 112.293 45.4461C113.038 44.7754 117.675 38.8336 118.674 37.834C119.674 36.8344 121.673 34.6815 123.288 34.5278C124.902 34.374 126.133 35.8349 127.132 36.9113C128.132 37.9878 127.747 39.6025 127.517 40.3714C127.286 41.1402 121.673 49.1367 120.597 50.6745C119.52 52.2123 110.985 62.2849 109.371 63.6689C108.71 64.235 105.526 67.744 104.988 68.2822C104.45 68.8204 100.759 73.28 100.375 73.5875C99.9903 73.8951 98.837 75.0484 97.7605 74.2027C96.6841 73.3569 97.7605 71.3577 97.9143 70.9733C98.0681 70.5889 102.835 64.4377 103.835 63.2844C104.834 62.131 108.602 56.6719 108.833 56.1337C109.063 55.5954 109.448 54.9803 109.371 54.2114C109.294 53.4425 107.602 51.751 107.141 51.2896C106.68 50.8283 105.219 48.9061 104.911 48.291C104.604 47.6758 104.296 46.4456 103.758 45.4461C103.22 44.4465 101.836 40.2176 101.605 38.7567C101.374 37.2958 101.605 35.5274 103.989 34.7585C106.372 33.9896 107.602 35.2966 107.987 35.8349C108.371 36.3731 108.448 38.8336 108.217 39.6794Z" fill="#1A1A1A"/>
<path d="M112.913 39.9878C112.431 40.5256 111.669 40.6286 111.21 40.2179C110.751 39.8071 110.77 39.0381 111.251 38.5003C111.733 37.9625 112.495 37.8595 112.954 38.2703C113.413 38.6811 113.394 39.45 112.913 39.9878Z" fill="#1A1A1A"/>
</svg>
